<svg xmlns="http://www.w3.org/2000/svg" xmlns:xlink="http://www.w3.org/1999/xlink" width="500" zoomAndPan="magnify" viewBox="0 0 375 374.999991" height="500" preserveAspectRatio="xMidYMid meet" version="1.0"><defs><clipPath id="369323be12"><path d="M 313 49 L 347.855469 49 L 347.855469 130 L 313 130 Z M 313 49 " clip-rule="nonzero"/></clipPath></defs><path fill="#ffffff" d="M 268.835938 247.0625 C 262.652344 244.316406 256.074219 245.300781 249.996094 247.988281 C 243.878906 250.691406 218.121094 262.460938 206.980469 267.535156 C 205.433594 268.238281 204.726562 270.039062 205.359375 271.617188 C 205.367188 271.625 205.367188 271.632812 205.375 271.644531 C 210.953125 285.40625 199.699219 300.246094 185.003906 298.277344 C 175.34375 296.976562 131.265625 289.648438 118.839844 287.601562 C 115.984375 287.144531 114.222656 284.949219 114.671875 282.453125 C 115.132812 279.964844 117.34375 278.519531 120.046875 278.953125 C 133.027344 281.050781 176.398438 288.136719 185.128906 289.386719 C 191.238281 290.273438 196.238281 287.027344 197.707031 281.574219 C 199.148438 276.199219 196.195312 270.824219 190.371094 268.40625 C 173.5 261.394531 156.617188 254.398438 139.730469 247.402344 C 137.601562 246.527344 135.414062 245.894531 133.0625 245.894531 C 116.210938 245.917969 99.367188 245.933594 82.511719 245.886719 C 78.839844 245.867188 75.6875 246.960938 72.847656 249.25 C 71.585938 250.265625 70.3125 251.269531 69.023438 252.261719 C 68.359375 252.769531 67.964844 253.5625 67.964844 254.40625 L 67.964844 313.5 C 67.964844 314.769531 68.839844 315.871094 70.078125 316.148438 C 91.058594 320.898438 112.0625 325.570312 132.984375 330.527344 C 144.621094 333.285156 160.445312 337.472656 170.847656 331.078125 C 198.113281 314.351562 268.484375 274.472656 274.070312 268.371094 C 280.078125 261.800781 275.195312 249.890625 268.835938 247.0625 " fill-opacity="1" fill-rule="nonzero"/><path fill="#ffffff" d="M 44.351562 316.765625 C 39.804688 316.765625 36.113281 313.074219 36.113281 308.519531 C 36.113281 303.96875 39.804688 300.28125 44.351562 300.28125 C 48.910156 300.28125 52.597656 303.96875 52.597656 308.519531 C 52.597656 313.074219 48.910156 316.765625 44.351562 316.765625 Z M 54.191406 245.558594 L 34.519531 245.558594 C 30.496094 245.558594 27.242188 248.824219 27.242188 252.835938 L 27.242188 318.484375 C 27.242188 322.507812 30.496094 325.761719 34.519531 325.761719 L 54.191406 325.761719 C 58.207031 325.761719 61.472656 322.507812 61.472656 318.484375 L 61.472656 252.835938 C 61.472656 248.824219 58.207031 245.558594 54.191406 245.558594 " fill-opacity="1" fill-rule="nonzero"/><path fill="#ffffff" d="M 304.917969 58.851562 C 283.9375 54.101562 262.933594 49.429688 242.011719 44.472656 C 230.367188 41.714844 214.550781 37.527344 204.148438 43.921875 C 176.882812 60.648438 106.511719 100.527344 100.925781 106.628906 C 94.917969 113.199219 99.800781 125.109375 106.160156 127.9375 C 112.34375 130.683594 118.921875 129.699219 125 127.011719 C 131.117188 124.308594 156.875 112.539062 168.015625 107.464844 C 169.5625 106.761719 170.277344 104.960938 169.636719 103.382812 C 169.628906 103.375 169.628906 103.367188 169.621094 103.355469 C 164.042969 89.59375 175.296875 74.753906 189.992188 76.722656 C 199.652344 78.023438 243.730469 85.351562 256.15625 87.398438 C 259.011719 87.855469 260.773438 90.050781 260.316406 92.546875 C 259.863281 95.035156 257.652344 96.480469 254.949219 96.046875 C 241.96875 93.949219 198.597656 86.863281 189.867188 85.605469 C 183.757812 84.726562 178.757812 87.972656 177.289062 93.425781 C 175.847656 98.800781 178.800781 104.175781 184.625 106.59375 C 201.496094 113.613281 218.378906 120.601562 235.265625 127.585938 C 237.394531 128.472656 239.582031 129.105469 241.933594 129.105469 C 258.785156 129.082031 275.628906 129.066406 292.484375 129.113281 C 296.15625 129.132812 299.300781 128.039062 302.148438 125.75 C 303.410156 124.734375 304.683594 123.730469 305.972656 122.738281 C 306.636719 122.230469 307.03125 121.4375 307.03125 120.59375 L 307.03125 61.5 C 307.03125 60.230469 306.15625 59.128906 304.917969 58.851562 " fill-opacity="1" fill-rule="nonzero"/><g clip-path="url(#369323be12)"><path fill="#ffffff" d="M 330.644531 74.71875 C 326.085938 74.71875 322.398438 71.03125 322.398438 66.480469 C 322.398438 61.925781 326.085938 58.234375 330.644531 58.234375 C 335.191406 58.234375 338.882812 61.925781 338.882812 66.480469 C 338.882812 71.03125 335.191406 74.71875 330.644531 74.71875 Z M 340.476562 49.238281 L 320.804688 49.238281 C 316.789062 49.238281 313.523438 52.492188 313.523438 56.515625 L 313.523438 122.164062 C 313.523438 126.175781 316.789062 129.441406 320.804688 129.441406 L 340.476562 129.441406 C 344.5 129.441406 347.753906 126.175781 347.753906 122.164062 L 347.753906 56.515625 C 347.753906 52.492188 344.5 49.238281 340.476562 49.238281 " fill-opacity="1" fill-rule="nonzero"/></g><path fill="#ffffff" d="M 187.429688 218.734375 C 180.6875 218.234375 174.484375 213.339844 172.414062 206.898438 C 167.089844 208.96875 161.757812 211.039062 156.421875 213.109375 C 159.21875 223.464844 168.382812 231.820312 178.960938 233.632812 C 178.976562 237.570312 179 241.519531 179.019531 245.460938 C 184.667969 245.460938 190.328125 245.460938 195.976562 245.460938 C 196.003906 241.503906 196.019531 237.546875 196.046875 233.597656 C 205.628906 231.9375 214.097656 224.75 217.078125 215.496094 C 220.058594 206.238281 217.296875 195.335938 210.109375 188.785156 C 208.847656 187.632812 207.496094 186.625 206.078125 185.738281 C 199.207031 181.433594 190.710938 179.746094 183.074219 176.632812 C 179.710938 175.265625 176.230469 173.351562 174.777344 170.03125 C 173.34375 166.75 174.34375 162.703125 176.796875 160.097656 C 179.242188 157.484375 182.914062 156.234375 186.496094 156.226562 C 193.632812 156.214844 200.492188 161.273438 202.597656 168.101562 C 207.921875 166.03125 213.246094 163.960938 218.574219 161.890625 C 215.785156 151.527344 206.613281 143.179688 196.035156 141.367188 C 196.019531 137.417969 195.996094 133.480469 195.976562 129.53125 C 190.320312 129.53125 184.667969 129.53125 179.007812 129.53125 C 179 133.539062 178.992188 137.527344 178.992188 141.527344 C 178.992188 141.402344 173.75 142.84375 173.292969 143.019531 C 171.378906 143.761719 169.5625 144.738281 167.875 145.910156 C 164.644531 148.144531 161.699219 151.175781 159.960938 154.722656 C 156.433594 161.949219 155.765625 171.117188 159.042969 178.535156 C 159.796875 180.238281 160.753906 181.839844 161.921875 183.292969 C 165.554688 187.851562 170.878906 190.746094 176.3125 192.859375 C 181.738281 194.980469 187.421875 196.4375 192.765625 198.777344 C 195.628906 200.027344 198.53125 201.6875 199.984375 204.453125 C 201.777344 207.875 200.761719 212.355469 198.054688 215.121094 C 195.359375 217.882812 191.289062 219.027344 187.429688 218.734375 " fill-opacity="1" fill-rule="nonzero"/></svg>