<svg xmlns="http://www.w3.org/2000/svg" xmlns:xlink="http://www.w3.org/1999/xlink" width="500" zoomAndPan="magnify" viewBox="0 0 375 374.999991" height="500" preserveAspectRatio="xMidYMid meet" version="1.0"><defs><clipPath id="5e9bb88200"><path d="M 37.5 75 L 307 75 L 307 345 L 37.5 345 Z M 37.5 75 " clip-rule="nonzero"/></clipPath><clipPath id="7ba80494a6"><path d="M 152 37.5 L 345 37.5 L 345 211 L 152 211 Z M 152 37.5 " clip-rule="nonzero"/></clipPath></defs><g clip-path="url(#5e9bb88200)"><path fill="#ffffff" d="M 290.234375 267.320312 C 269.433594 265.574219 249.59375 260.464844 231.210938 252.589844 C 222.949219 249.054688 213.347656 251.226562 208.238281 258.621094 C 207.507812 259.675781 206.757812 260.769531 206.027344 261.867188 C 198.152344 273.488281 190.644531 285.875 190.644531 285.875 C 151 263.996094 118.191406 231.402344 96.277344 191.796875 C 96.277344 191.796875 111.238281 182.789062 123.703125 174.144531 C 131.097656 169.035156 133.269531 159.410156 129.734375 151.152344 C 121.859375 132.75 116.75 112.910156 115.003906 92.089844 C 114.234375 82.8125 106.035156 75.914062 96.71875 75.914062 L 47.105469 75.914062 C 41.898438 75.914062 37.5 80.179688 37.5 85.386719 C 37.421875 228.464844 153.859375 344.902344 296.9375 344.824219 C 302.144531 344.824219 306.410156 340.425781 306.410156 335.21875 L 306.410156 285.605469 C 306.410156 276.289062 299.511719 268.089844 290.234375 267.320312 Z M 290.234375 267.320312 " fill-opacity="1" fill-rule="nonzero"/></g><g clip-path="url(#7ba80494a6)"><path fill="#ffffff" d="M 248.785156 37.5 C 195.828125 37.5 152.746094 71.957031 152.746094 114.332031 C 152.746094 134.289062 161.910156 152.667969 178.675781 166.691406 L 172.144531 198.84375 C 171.398438 202.53125 172.855469 206.296875 175.890625 208.507812 C 177.5625 209.734375 179.5625 210.371094 181.558594 210.371094 C 183.152344 210.371094 184.765625 209.964844 186.207031 209.160156 L 223.566406 188.453125 C 231.84375 190.257812 240.316406 191.160156 248.785156 191.160156 C 301.742188 191.160156 344.824219 156.703125 344.824219 114.332031 C 344.824219 71.957031 301.742188 37.5 248.785156 37.5 Z M 248.785156 37.5 " fill-opacity="1" fill-rule="nonzero"/></g></svg>