<svg xmlns="http://www.w3.org/2000/svg" xmlns:xlink="http://www.w3.org/1999/xlink" width="500" zoomAndPan="magnify" viewBox="0 0 375 374.999991" height="500" preserveAspectRatio="xMidYMid meet" version="1.0"><defs><clipPath id="88be6d0228"><path d="M 51 20.503906 L 324 20.503906 L 324 354.253906 L 51 354.253906 Z M 51 20.503906 " clip-rule="nonzero"/></clipPath><clipPath id="ed1008bef3"><path d="M 226 20.503906 L 324 20.503906 L 324 118 L 226 118 Z M 226 20.503906 " clip-rule="nonzero"/></clipPath><clipPath id="e522d26b11"><path d="M 15.574219 170 L 359.074219 170 L 359.074219 327 L 15.574219 327 Z M 15.574219 170 " clip-rule="nonzero"/></clipPath></defs><path fill="#ffffff" d="M 52.277344 21.125 L 227.421875 21.125 L 322.742188 116.445312 L 322.742188 353.882812 L 52.277344 353.882812 Z M 52.277344 21.125 " fill-opacity="1" fill-rule="evenodd"/><g clip-path="url(#88be6d0228)"><path stroke-linecap="round" transform="matrix(2.213659, 0, 0, 2.213659, 15.573301, 20.504446)" fill="none" stroke-linejoin="round" d="M 16.580714 0.28033 L 95.700649 0.28033 L 138.760725 43.340406 L 138.760725 150.600618 L 16.580714 150.600618 Z M 16.580714 0.28033 " stroke="#000000" stroke-width="0.57" stroke-opacity="1" stroke-miterlimit="4"/></g><path fill="#131313" d="M 226.777344 117.085938 L 322.742188 117.085938 L 226.777344 21.125 Z M 226.777344 117.085938 " fill-opacity="1" fill-rule="evenodd"/><g clip-path="url(#ed1008bef3)"><path stroke-linecap="round" transform="matrix(2.213659, 0, 0, 2.213659, 15.573301, 20.504446)" fill="none" stroke-linejoin="round" d="M 95.409488 43.629803 L 138.760725 43.629803 L 95.409488 0.28033 Z M 95.409488 43.629803 " stroke="#000000" stroke-width="0.57" stroke-opacity="1" stroke-miterlimit="4"/></g><path fill="#131313" d="M 36.46875 188.277344 L 338.546875 188.277344 C 339.207031 188.28125 339.867188 188.3125 340.527344 188.382812 C 341.183594 188.449219 341.839844 188.546875 342.488281 188.675781 C 343.136719 188.808594 343.777344 188.96875 344.410156 189.164062 C 345.042969 189.355469 345.664062 189.578125 346.277344 189.832031 C 346.886719 190.085938 347.484375 190.371094 348.070312 190.683594 C 348.652344 190.996094 349.21875 191.335938 349.769531 191.703125 C 350.320312 192.070312 350.851562 192.464844 351.363281 192.882812 C 351.875 193.304688 352.367188 193.746094 352.832031 194.214844 C 353.300781 194.679688 353.746094 195.171875 354.167969 195.679688 C 354.589844 196.191406 354.984375 196.722656 355.351562 197.273438 C 355.722656 197.820312 356.0625 198.386719 356.375 198.972656 C 356.6875 199.554688 356.972656 200.148438 357.230469 200.761719 C 357.484375 201.371094 357.710938 201.992188 357.902344 202.625 C 358.097656 203.257812 358.261719 203.898438 358.394531 204.546875 C 358.527344 205.195312 358.625 205.851562 358.695312 206.507812 C 358.761719 207.167969 358.796875 207.828125 358.800781 208.488281 L 358.800781 287.890625 C 358.796875 288.554688 358.761719 289.214844 358.695312 289.875 C 358.628906 290.535156 358.527344 291.191406 358.398438 291.839844 C 358.265625 292.488281 358.105469 293.128906 357.910156 293.765625 C 357.714844 294.398438 357.492188 295.019531 357.234375 295.632812 C 356.980469 296.246094 356.699219 296.84375 356.382812 297.425781 C 356.070312 298.011719 355.730469 298.578125 355.363281 299.128906 C 354.992188 299.679688 354.597656 300.210938 354.175781 300.726562 C 353.757812 301.238281 353.3125 301.726562 352.84375 302.195312 C 352.375 302.664062 351.886719 303.109375 351.375 303.53125 C 350.863281 303.953125 350.332031 304.347656 349.78125 304.71875 C 349.230469 305.085938 348.664062 305.429688 348.078125 305.742188 C 347.496094 306.054688 346.898438 306.339844 346.285156 306.597656 C 345.671875 306.851562 345.050781 307.078125 344.417969 307.269531 C 343.785156 307.464844 343.140625 307.628906 342.492188 307.761719 C 341.84375 307.894531 341.1875 307.992188 340.53125 308.0625 C 339.871094 308.128906 339.210938 308.164062 338.546875 308.167969 L 36.46875 308.167969 C 35.808594 308.167969 35.144531 308.132812 34.484375 308.066406 C 33.824219 308 33.167969 307.898438 32.519531 307.769531 C 31.867188 307.636719 31.226562 307.476562 30.589844 307.28125 C 29.957031 307.085938 29.332031 306.863281 28.722656 306.609375 C 28.109375 306.351562 27.507812 306.070312 26.925781 305.753906 C 26.339844 305.441406 25.773438 305.101562 25.21875 304.730469 C 24.667969 304.363281 24.136719 303.96875 23.625 303.546875 C 23.113281 303.125 22.621094 302.679688 22.152344 302.210938 C 21.683594 301.742188 21.238281 301.25 20.816406 300.738281 C 20.394531 300.226562 20 299.691406 19.628906 299.140625 C 19.261719 298.589844 18.921875 298.023438 18.605469 297.4375 C 18.292969 296.851562 18.007812 296.253906 17.753906 295.640625 C 17.5 295.027344 17.273438 294.40625 17.082031 293.769531 C 16.886719 293.136719 16.726562 292.492188 16.59375 291.84375 C 16.460938 291.191406 16.363281 290.539062 16.296875 289.878906 C 16.230469 289.21875 16.195312 288.554688 16.191406 287.890625 L 16.191406 208.445312 C 16.199219 207.78125 16.234375 207.121094 16.304688 206.464844 C 16.371094 205.808594 16.472656 205.152344 16.605469 204.503906 C 16.738281 203.855469 16.902344 203.21875 17.097656 202.585938 C 17.292969 201.953125 17.519531 201.332031 17.773438 200.722656 C 18.03125 200.113281 18.316406 199.515625 18.628906 198.933594 C 18.945312 198.351562 19.285156 197.785156 19.65625 197.238281 C 20.023438 196.6875 20.421875 196.160156 20.84375 195.648438 C 21.261719 195.140625 21.707031 194.652344 22.175781 194.183594 C 22.648438 193.71875 23.136719 193.273438 23.648438 192.855469 C 24.164062 192.4375 24.695312 192.046875 25.246094 191.679688 C 25.796875 191.3125 26.363281 190.972656 26.945312 190.660156 C 27.53125 190.351562 28.128906 190.070312 28.738281 189.816406 C 29.351562 189.5625 29.972656 189.339844 30.605469 189.148438 C 31.238281 188.957031 31.878906 188.796875 32.53125 188.667969 C 33.179688 188.539062 33.832031 188.441406 34.492188 188.375 C 35.148438 188.3125 35.808594 188.277344 36.46875 188.277344 Z M 36.46875 188.277344 " fill-opacity="1" fill-rule="evenodd"/><g clip-path="url(#e522d26b11)"><path stroke-linecap="butt" transform="matrix(2.213659, 0, 0, 2.213659, -364.866094, -365.137066)" fill="none" stroke-linejoin="miter" d="M 181.299333 249.999881 L 317.760353 249.999881 C 318.058573 250.001645 318.356792 250.015762 318.655012 250.047525 C 318.951467 250.077524 319.247922 250.121639 319.540847 250.179871 C 319.833773 250.239868 320.12317 250.312217 320.409037 250.400448 C 320.694904 250.486914 320.975477 250.587497 321.252522 250.702196 C 321.527801 250.816896 321.797787 250.945713 322.062479 251.086882 C 322.325406 251.228051 322.581275 251.381572 322.830085 251.547446 C 323.078896 251.713319 323.318883 251.891545 323.550047 252.080359 C 323.781211 252.270937 324.003553 252.470338 324.213542 252.682092 C 324.425295 252.892081 324.626461 253.114422 324.817039 253.343821 C 325.007617 253.574986 325.185843 253.814973 325.351717 254.063783 C 325.519355 254.310829 325.672876 254.566698 325.814045 254.83139 C 325.955214 255.094317 326.084031 255.362538 326.200495 255.639582 C 326.315195 255.914862 326.417543 256.195435 326.504009 256.481303 C 326.592239 256.76717 326.666353 257.056566 326.72635 257.349492 C 326.786347 257.642418 326.830462 257.938873 326.862225 258.235328 C 326.892223 258.533547 326.908105 258.831767 326.90987 259.129986 L 326.90987 294.999266 C 326.908105 295.29925 326.892223 295.59747 326.862225 295.895689 C 326.832227 296.193909 326.786347 296.490364 326.728114 296.78329 C 326.668118 297.076215 326.595769 297.365612 326.507538 297.653244 C 326.419307 297.939111 326.318724 298.219684 326.20226 298.496728 C 326.08756 298.773773 325.960508 299.043758 325.817574 299.306686 C 325.676405 299.571377 325.522884 299.827246 325.357011 300.076057 C 325.189372 300.324867 325.011146 300.564854 324.820568 300.797783 C 324.631755 301.028947 324.430589 301.249524 324.218835 301.461278 C 324.007082 301.673031 323.786505 301.874197 323.555341 302.064775 C 323.324177 302.255353 323.08419 302.433579 322.835379 302.601217 C 322.586569 302.767091 322.3307 302.922377 322.066008 303.063546 C 321.803081 303.204715 321.533095 303.333531 321.256051 303.449996 C 320.979007 303.564696 320.698433 303.667043 320.412566 303.753509 C 320.126699 303.84174 319.835538 303.915854 319.542612 303.97585 C 319.249686 304.035847 318.953231 304.079963 318.656777 304.111726 C 318.358557 304.141724 318.060337 304.157606 317.760353 304.15937 L 181.299333 304.15937 C 181.001113 304.15937 180.701129 304.143489 180.402909 304.11349 C 180.10469 304.083492 179.808235 304.037612 179.515309 303.97938 C 179.220619 303.919383 178.931223 303.847034 178.643591 303.758803 C 178.357723 303.670573 178.075385 303.56999 177.800106 303.45529 C 177.523062 303.338825 177.251311 303.211773 176.988384 303.06884 C 176.723692 302.927671 176.467823 302.774149 176.217248 302.606511 C 175.968438 302.440638 175.728451 302.262412 175.497286 302.071833 C 175.266122 301.881255 175.043781 301.68009 174.832027 301.468336 C 174.620274 301.256582 174.419108 301.034241 174.22853 300.803077 C 174.037952 300.571913 173.859726 300.330161 173.692088 300.08135 C 173.526214 299.83254 173.372693 299.576671 173.229759 299.311979 C 173.08859 299.047288 172.959774 298.777302 172.845074 298.500258 C 172.730374 298.223213 172.628026 297.94264 172.54156 297.655008 C 172.45333 297.369141 172.380981 297.07798 172.320984 296.785054 C 172.260987 296.490364 172.216872 296.195674 172.186873 295.897454 C 172.156875 295.599235 172.140993 295.29925 172.139229 294.999266 L 172.139229 259.110575 C 172.142758 258.810591 172.158639 258.512372 172.190402 258.215917 C 172.220401 257.919462 172.266281 257.623007 172.326278 257.330081 C 172.386274 257.037156 172.460388 256.749524 172.548619 256.463657 C 172.636849 256.177789 172.739197 255.897216 172.853897 255.621936 C 172.970361 255.346657 173.099178 255.076671 173.240347 254.813744 C 173.383281 254.550816 173.536802 254.294948 173.70444 254.047902 C 173.870314 253.799092 174.050304 253.560869 174.240882 253.329705 C 174.429696 253.100305 174.630862 252.879728 174.842615 252.667975 C 175.056133 252.457986 175.27671 252.25682 175.507874 252.068007 C 175.740803 251.879193 175.98079 251.702732 176.229601 251.536858 C 176.478411 251.370985 176.73428 251.217463 176.997207 251.076294 C 177.261899 250.93689 177.531885 250.809838 177.807164 250.695138 C 178.084208 250.580438 178.364782 250.479855 178.650649 250.393389 C 178.936516 250.306923 179.225913 250.234574 179.520603 250.176342 C 179.813529 250.11811 180.108219 250.073994 180.406439 250.043996 C 180.702894 250.015762 181.001113 249.999881 181.299333 249.999881 Z M 181.299333 249.999881 " stroke="#000000" stroke-width="0.57" stroke-opacity="1" stroke-miterlimit="10"/></g><path fill="#ffffff" d="M 129.089844 267.480469 C 129.09375 268.066406 128.976562 268.625 128.746094 269.160156 C 128.515625 269.695312 128.1875 270.160156 127.761719 270.558594 C 126.894531 271.40625 125.855469 271.828125 124.640625 271.820312 C 123.417969 271.835938 122.371094 271.414062 121.496094 270.558594 C 121.296875 270.355469 121.117188 270.132812 120.960938 269.890625 C 120.800781 269.652344 120.667969 269.398438 120.558594 269.132812 C 120.453125 268.867188 120.371094 268.59375 120.3125 268.3125 C 120.257812 268.03125 120.230469 267.746094 120.230469 267.460938 C 120.230469 267.171875 120.257812 266.890625 120.3125 266.605469 C 120.371094 266.324219 120.453125 266.050781 120.558594 265.785156 C 120.667969 265.519531 120.800781 265.269531 120.960938 265.027344 C 121.117188 264.789062 121.296875 264.566406 121.496094 264.359375 C 122.359375 263.480469 123.40625 263.039062 124.640625 263.03125 C 125.230469 263.03125 125.796875 263.144531 126.339844 263.375 C 126.878906 263.605469 127.355469 263.933594 127.761719 264.359375 C 128.195312 264.761719 128.527344 265.238281 128.757812 265.78125 C 128.988281 266.324219 129.101562 266.890625 129.089844 267.480469 Z M 180.425781 271.203125 L 159.019531 271.203125 L 159.019531 268.988281 C 160.457031 268.949219 161.882812 268.777344 163.289062 268.476562 C 164.351562 268.167969 164.90625 267.726562 164.90625 267.105469 C 164.777344 266.410156 164.527344 265.761719 164.152344 265.15625 C 163.601562 263.988281 162.972656 262.859375 162.273438 261.769531 L 159.195312 256.878906 C 158.023438 255.042969 156.828125 253.226562 155.699219 251.542969 C 153.816406 254.046875 151.601562 257.054688 149.234375 260.574219 C 147.71875 262.464844 146.5 264.53125 145.582031 266.773438 C 145.585938 267.113281 145.679688 267.421875 145.863281 267.707031 C 146.046875 267.992188 146.292969 268.203125 146.601562 268.34375 C 148.042969 268.777344 149.519531 268.992188 151.027344 268.988281 L 151.027344 271.203125 L 133.894531 271.203125 L 133.894531 268.988281 C 134.46875 268.988281 135.15625 268.855469 136.105469 268.722656 C 136.886719 268.667969 137.625 268.460938 138.320312 268.101562 C 139.335938 267.613281 140.234375 266.964844 141.019531 266.152344 C 141.769531 265.394531 142.453125 264.582031 143.078125 263.71875 C 144.476562 261.816406 146.222656 259.445312 148.371094 256.613281 C 150.519531 253.78125 152.445312 251.210938 154.082031 248.910156 C 152.820312 247.074219 151.183594 244.746094 149.300781 242.003906 C 147.417969 239.257812 145.292969 236.160156 143.035156 232.972656 C 142.375 231.945312 141.636719 230.980469 140.820312 230.070312 C 140.242188 229.441406 139.554688 228.960938 138.761719 228.632812 C 138.054688 228.335938 137.316406 228.140625 136.550781 228.058594 C 135.621094 227.945312 134.933594 227.8125 134.335938 227.8125 L 134.335938 225.488281 L 155.542969 225.488281 L 155.542969 227.8125 C 154.230469 227.84375 152.933594 227.992188 151.648438 228.257812 C 150.273438 228.5 149.589844 228.941406 149.589844 229.519531 C 149.726562 230.304688 149.996094 231.042969 150.40625 231.730469 C 150.960938 232.726562 151.601562 233.945312 152.355469 234.984375 C 153.109375 236.027344 153.925781 237.574219 154.855469 239.015625 C 155.785156 240.453125 156.9375 242.15625 158.242188 244.085938 C 160.699219 240.761719 162.824219 237.820312 164.574219 235.230469 C 165.832031 233.6875 166.710938 231.953125 167.207031 230.027344 C 167.207031 229.386719 166.789062 228.898438 166.035156 228.523438 C 164.699219 228.117188 163.335938 227.925781 161.941406 227.945312 L 161.941406 225.621094 L 178.964844 225.621094 L 178.964844 227.945312 C 178.265625 227.960938 177.570312 228.027344 176.882812 228.144531 C 176.125 228.273438 175.386719 228.480469 174.667969 228.765625 C 173.71875 229.195312 172.878906 229.777344 172.144531 230.515625 C 171.59375 231.15625 170.90625 232.019531 169.933594 233.214844 C 168.183594 235.429688 166.609375 237.488281 165.171875 239.5 L 159.902344 246.585938 C 161.652344 249.042969 163.535156 251.789062 165.660156 254.929688 C 167.785156 258.074219 169.820312 261.019531 171.746094 263.785156 C 172.460938 264.753906 173.234375 265.667969 174.070312 266.53125 C 174.691406 267.207031 175.386719 267.796875 176.152344 268.300781 C 176.792969 268.652344 177.480469 268.835938 178.210938 268.855469 C 179.097656 268.988281 179.847656 268.988281 180.425781 269.054688 Z M 220.269531 257.566406 L 219.339844 271.203125 L 183.679688 271.203125 L 183.679688 268.988281 L 185.890625 268.722656 C 186.585938 268.679688 187.257812 268.53125 187.90625 268.277344 C 188.527344 268.058594 189.003906 267.667969 189.34375 267.105469 C 189.613281 266.4375 189.738281 265.746094 189.722656 265.023438 L 189.722656 232.261719 C 189.71875 231.597656 189.617188 230.949219 189.410156 230.316406 C 189.089844 229.675781 188.585938 229.238281 187.90625 229.007812 C 187.25 228.65625 186.554688 228.40625 185.824219 228.257812 C 185.105469 228.015625 184.367188 227.867188 183.613281 227.8125 L 183.613281 225.488281 L 202.871094 225.488281 L 202.871094 227.8125 C 202.085938 227.851562 201.3125 227.953125 200.546875 228.125 C 199.792969 228.222656 199.054688 228.390625 198.332031 228.632812 C 197.648438 228.859375 197.148438 229.292969 196.828125 229.9375 C 196.578125 230.585938 196.453125 231.257812 196.453125 231.953125 L 196.453125 262.699219 C 196.4375 263.8125 196.496094 264.917969 196.628906 266.019531 C 196.777344 266.738281 197.117188 267.351562 197.648438 267.859375 C 198.320312 268.300781 199.058594 268.550781 199.859375 268.609375 C 200.855469 268.722656 202.183594 268.722656 203.933594 268.722656 C 204.753906 268.722656 205.570312 268.722656 206.457031 268.722656 C 207.277344 268.710938 208.085938 268.632812 208.890625 268.476562 C 209.597656 268.351562 210.289062 268.183594 210.972656 267.96875 C 211.515625 267.816406 211.972656 267.53125 212.34375 267.105469 C 213.519531 265.730469 214.542969 264.257812 215.421875 262.679688 C 216.367188 261.105469 217.1875 259.464844 217.878906 257.765625 Z M 251.902344 250.105469 C 252.886719 251.148438 253.625 252.34375 254.117188 253.691406 C 254.605469 255.125 254.84375 256.601562 254.824219 258.117188 C 254.847656 259.0625 254.769531 259.996094 254.585938 260.925781 C 254.402344 261.851562 254.117188 262.746094 253.734375 263.609375 C 253.351562 264.472656 252.878906 265.28125 252.316406 266.039062 C 251.753906 266.796875 251.113281 267.484375 250.398438 268.101562 C 248.863281 269.425781 247.140625 270.425781 245.230469 271.105469 C 243.324219 271.785156 241.355469 272.097656 239.328125 272.042969 C 237.253906 272.039062 235.226562 271.726562 233.242188 271.113281 C 231.378906 270.539062 229.597656 269.761719 227.90625 268.789062 L 226.535156 271.179688 L 223.945312 271.179688 L 223.503906 255.484375 L 226.160156 255.484375 C 226.644531 257.269531 227.273438 259.003906 228.039062 260.6875 C 228.800781 262.273438 229.738281 263.75 230.851562 265.113281 C 231.984375 266.363281 233.304688 267.367188 234.8125 268.125 C 236.457031 268.917969 238.191406 269.296875 240.015625 269.253906 C 241.347656 269.273438 242.644531 269.082031 243.914062 268.675781 C 244.933594 268.335938 245.835938 267.789062 246.613281 267.039062 C 247.289062 266.3125 247.792969 265.476562 248.117188 264.539062 C 248.457031 263.457031 248.621094 262.351562 248.605469 261.21875 C 248.617188 259.355469 248.09375 257.65625 247.035156 256.125 C 245.902344 254.441406 244.378906 253.253906 242.472656 252.5625 C 241.078125 251.988281 239.441406 251.367188 237.625 250.679688 L 232.976562 248.800781 C 230.59375 247.761719 228.589844 246.234375 226.957031 244.214844 C 226.1875 243.136719 225.613281 241.960938 225.234375 240.691406 C 224.855469 239.421875 224.691406 238.125 224.742188 236.800781 C 224.738281 235.09375 225.09375 233.460938 225.804688 231.910156 C 226.527344 230.363281 227.53125 229.027344 228.816406 227.902344 C 230.125 226.742188 231.601562 225.867188 233.242188 225.269531 C 234.949219 224.625 236.710938 224.308594 238.53125 224.316406 C 240.5 224.277344 242.40625 224.609375 244.246094 225.3125 C 245.785156 225.921875 247.257812 226.660156 248.671875 227.527344 L 249.976562 225.3125 L 252.546875 225.3125 L 252.878906 240.496094 L 250.242188 240.496094 C 249.734375 238.75 249.226562 237.109375 248.605469 235.472656 C 248.027344 233.894531 247.253906 232.417969 246.28125 231.046875 C 245.371094 229.8125 244.238281 228.832031 242.894531 228.101562 C 241.363281 227.292969 239.734375 226.914062 238 226.972656 C 237.042969 226.964844 236.113281 227.125 235.214844 227.457031 C 234.3125 227.789062 233.503906 228.269531 232.777344 228.898438 C 232.070312 229.503906 231.523438 230.230469 231.136719 231.078125 C 230.75 231.925781 230.558594 232.816406 230.5625 233.746094 C 230.488281 235.527344 230.945312 237.15625 231.9375 238.636719 C 232.996094 240.058594 234.339844 241.121094 235.964844 241.824219 C 237.472656 242.578125 239.023438 243.226562 240.613281 243.773438 C 242.121094 244.351562 243.558594 244.96875 245.042969 245.546875 C 246.320312 246.105469 247.550781 246.753906 248.738281 247.492188 C 249.902344 248.152344 250.953125 248.964844 251.882812 249.929688 Z M 251.902344 250.105469 " fill-opacity="1" fill-rule="nonzero"/><path fill="#131313" d="M 84.085938 68.320312 L 185.804688 68.320312 C 186.183594 68.320312 186.546875 68.394531 186.894531 68.539062 C 187.246094 68.683594 187.554688 68.886719 187.824219 69.152344 C 188.09375 69.414062 188.304688 69.722656 188.457031 70.066406 C 188.609375 70.414062 188.691406 70.773438 188.703125 71.152344 C 188.699219 71.535156 188.621094 71.902344 188.46875 72.253906 C 188.320312 72.605469 188.109375 72.914062 187.839844 73.183594 C 187.570312 73.453125 187.257812 73.660156 186.90625 73.804688 C 186.550781 73.953125 186.183594 74.027344 185.804688 74.03125 L 84.085938 74.03125 C 83.710938 74.023438 83.351562 73.941406 83.003906 73.792969 C 82.660156 73.644531 82.355469 73.433594 82.09375 73.164062 C 81.832031 72.894531 81.628906 72.585938 81.488281 72.238281 C 81.34375 71.890625 81.273438 71.527344 81.273438 71.152344 C 81.28125 70.78125 81.359375 70.425781 81.503906 70.082031 C 81.648438 69.742188 81.855469 69.4375 82.117188 69.175781 C 82.375 68.910156 82.679688 68.707031 83.019531 68.558594 C 83.359375 68.410156 83.714844 68.332031 84.085938 68.320312 Z M 84.085938 68.320312 " fill-opacity="1" fill-rule="evenodd"/><path fill="#131313" d="M 84.085938 87.335938 L 185.804688 87.335938 C 186.183594 87.332031 186.550781 87.402344 186.902344 87.542969 C 187.253906 87.683594 187.566406 87.890625 187.835938 88.152344 C 188.109375 88.417969 188.320312 88.726562 188.46875 89.074219 C 188.621094 89.425781 188.699219 89.789062 188.703125 90.167969 C 188.695312 90.546875 188.613281 90.90625 188.464844 91.253906 C 188.3125 91.601562 188.101562 91.90625 187.828125 92.167969 C 187.558594 92.429688 187.246094 92.632812 186.898438 92.773438 C 186.546875 92.914062 186.179688 92.984375 185.804688 92.980469 L 84.085938 92.980469 C 83.714844 92.976562 83.355469 92.902344 83.011719 92.757812 C 82.671875 92.617188 82.367188 92.414062 82.105469 92.148438 C 81.839844 91.886719 81.636719 91.582031 81.496094 91.242188 C 81.351562 90.898438 81.277344 90.539062 81.273438 90.167969 C 81.277344 89.796875 81.351562 89.4375 81.492188 89.09375 C 81.636719 88.75 81.839844 88.445312 82.101562 88.179688 C 82.367188 87.914062 82.667969 87.707031 83.011719 87.5625 C 83.355469 87.417969 83.714844 87.339844 84.085938 87.335938 Z M 84.085938 87.335938 " fill-opacity="1" fill-rule="evenodd"/><path fill="#131313" d="M 84.085938 106.371094 L 166.742188 106.371094 C 167.117188 106.371094 167.476562 106.445312 167.820312 106.585938 C 168.164062 106.730469 168.46875 106.933594 168.730469 107.195312 C 168.996094 107.460938 169.199219 107.761719 169.339844 108.109375 C 169.484375 108.453125 169.554688 108.8125 169.554688 109.183594 C 169.558594 109.558594 169.488281 109.917969 169.347656 110.265625 C 169.207031 110.613281 169.003906 110.917969 168.738281 111.1875 C 168.476562 111.453125 168.171875 111.65625 167.824219 111.800781 C 167.480469 111.945312 167.117188 112.015625 166.742188 112.015625 L 84.085938 112.015625 C 83.714844 112.011719 83.355469 111.933594 83.011719 111.789062 C 82.667969 111.644531 82.367188 111.4375 82.101562 111.171875 C 81.839844 110.910156 81.636719 110.605469 81.492188 110.257812 C 81.351562 109.914062 81.277344 109.554688 81.273438 109.183594 C 81.277344 108.8125 81.351562 108.453125 81.496094 108.109375 C 81.636719 107.769531 81.839844 107.464844 82.105469 107.203125 C 82.367188 106.9375 82.671875 106.734375 83.011719 106.59375 C 83.355469 106.449219 83.714844 106.375 84.085938 106.371094 Z M 84.085938 106.371094 " fill-opacity="1" fill-rule="evenodd"/><path fill="#131313" d="M 84.085938 125.367188 L 185.804688 125.367188 C 186.183594 125.359375 186.546875 125.425781 186.898438 125.566406 C 187.25 125.707031 187.5625 125.90625 187.835938 126.171875 C 188.109375 126.433594 188.320312 126.738281 188.46875 127.085938 C 188.621094 127.433594 188.699219 127.796875 188.703125 128.175781 C 188.699219 128.554688 188.621094 128.921875 188.46875 129.269531 C 188.320312 129.617188 188.109375 129.925781 187.835938 130.191406 C 187.566406 130.457031 187.253906 130.660156 186.902344 130.800781 C 186.550781 130.945312 186.183594 131.011719 185.804688 131.011719 L 84.085938 131.011719 C 83.714844 131.003906 83.355469 130.929688 83.011719 130.78125 C 82.667969 130.636719 82.367188 130.429688 82.101562 130.167969 C 81.839844 129.902344 81.636719 129.597656 81.492188 129.253906 C 81.351562 128.910156 81.277344 128.550781 81.273438 128.175781 C 81.277344 127.804688 81.351562 127.449219 81.496094 127.105469 C 81.636719 126.761719 81.839844 126.457031 82.105469 126.195312 C 82.367188 125.933594 82.671875 125.730469 83.011719 125.585938 C 83.355469 125.441406 83.714844 125.367188 84.085938 125.367188 Z M 84.085938 125.367188 " fill-opacity="1" fill-rule="evenodd"/><path fill="#131313" d="M 84.085938 144.3125 L 185.804688 144.3125 C 186.183594 144.316406 186.550781 144.390625 186.90625 144.539062 C 187.257812 144.683594 187.570312 144.894531 187.839844 145.164062 C 188.109375 145.429688 188.320312 145.742188 188.46875 146.09375 C 188.621094 146.445312 188.699219 146.808594 188.703125 147.191406 C 188.691406 147.570312 188.609375 147.933594 188.457031 148.277344 C 188.304688 148.625 188.09375 148.929688 187.824219 149.195312 C 187.554688 149.457031 187.246094 149.660156 186.894531 149.804688 C 186.546875 149.949219 186.183594 150.023438 185.804688 150.027344 L 84.085938 150.027344 C 83.714844 150.015625 83.359375 149.933594 83.019531 149.785156 C 82.679688 149.640625 82.375 149.433594 82.117188 149.167969 C 81.855469 148.90625 81.648438 148.601562 81.503906 148.261719 C 81.359375 147.917969 81.28125 147.5625 81.273438 147.191406 C 81.273438 146.816406 81.34375 146.453125 81.488281 146.105469 C 81.628906 145.757812 81.832031 145.449219 82.09375 145.179688 C 82.355469 144.910156 82.660156 144.703125 83.003906 144.550781 C 83.351562 144.402344 83.710938 144.324219 84.085938 144.3125 Z M 84.085938 144.3125 " fill-opacity="1" fill-rule="evenodd"/><path fill="#131313" d="M 84.085938 163.328125 L 166.742188 163.328125 C 167.121094 163.335938 167.480469 163.414062 167.828125 163.5625 C 168.175781 163.710938 168.480469 163.917969 168.742188 164.1875 C 169.003906 164.457031 169.207031 164.769531 169.347656 165.117188 C 169.488281 165.46875 169.558594 165.832031 169.554688 166.207031 C 169.550781 166.582031 169.480469 166.9375 169.335938 167.285156 C 169.191406 167.628906 168.988281 167.933594 168.726562 168.195312 C 168.464844 168.460938 168.160156 168.667969 167.816406 168.8125 C 167.476562 168.960938 167.117188 169.035156 166.742188 169.039062 L 84.085938 169.039062 C 83.714844 169.03125 83.359375 168.949219 83.019531 168.800781 C 82.679688 168.652344 82.375 168.449219 82.117188 168.183594 C 81.855469 167.921875 81.648438 167.617188 81.503906 167.277344 C 81.359375 166.933594 81.28125 166.578125 81.273438 166.207031 C 81.273438 165.832031 81.34375 165.46875 81.488281 165.121094 C 81.628906 164.773438 81.832031 164.464844 82.09375 164.195312 C 82.355469 163.925781 82.660156 163.71875 83.003906 163.566406 C 83.351562 163.417969 83.710938 163.339844 84.085938 163.328125 Z M 84.085938 163.328125 " fill-opacity="1" fill-rule="evenodd"/></svg>