<svg xmlns="http://www.w3.org/2000/svg" xmlns:xlink="http://www.w3.org/1999/xlink" width="500" zoomAndPan="magnify" viewBox="0 0 375 374.999991" height="500" preserveAspectRatio="xMidYMid meet" version="1.0"><defs><clipPath id="80234a7792"><path d="M 72 343 L 80.875 343 L 80.875 364.109375 L 72 364.109375 Z M 72 343 " clip-rule="nonzero"/></clipPath><clipPath id="9da5a0beb9"><path d="M 304 10.867188 L 314 10.867188 L 314 32 L 304 32 Z M 304 10.867188 " clip-rule="nonzero"/></clipPath><clipPath id="9051115d27"><path d="M 161.472656 42.289062 L 354.640625 42.289062 L 354.640625 252.660156 L 161.472656 252.660156 Z M 161.472656 42.289062 " clip-rule="nonzero"/></clipPath></defs><path fill="#ffffff" d="M 97.59375 334.90625 L 104.878906 331.152344 L 114.34375 349.511719 L 107.054688 353.265625 L 97.59375 334.90625 " fill-opacity="1" fill-rule="nonzero"/><path fill="#ffffff" d="M 38.59375 349.511719 L 48.058594 331.152344 L 55.34375 334.910156 L 45.882812 353.269531 L 38.59375 349.511719 " fill-opacity="1" fill-rule="nonzero"/><g clip-path="url(#80234a7792)"><path fill="#ffffff" d="M 72.113281 363.902344 L 72.632812 343.253906 L 80.824219 343.460938 L 80.304688 364.109375 L 72.113281 363.902344 " fill-opacity="1" fill-rule="nonzero"/></g><path fill="#ffffff" d="M 271.023438 25.46875 L 278.3125 21.710938 L 287.773438 40.070312 L 280.488281 43.828125 L 271.023438 25.46875 " fill-opacity="1" fill-rule="nonzero"/><path fill="#ffffff" d="M 330.019531 40.070312 L 339.484375 21.710938 L 346.769531 25.46875 L 337.308594 43.828125 L 330.019531 40.070312 " fill-opacity="1" fill-rule="nonzero"/><g clip-path="url(#9da5a0beb9)"><path fill="#ffffff" d="M 304.542969 31.515625 L 305.0625 10.871094 L 313.257812 11.078125 L 312.738281 31.722656 L 304.542969 31.515625 " fill-opacity="1" fill-rule="nonzero"/></g><path fill="#ffffff" d="M 329.039062 306.578125 C 329.601562 306.597656 330.15625 306.433594 330.617188 306.113281 L 330.324219 285.5 L 238.339844 285.582031 L 238.640625 306.804688 C 239.117188 307.148438 239.695312 307.316406 240.28125 307.273438 L 329.039062 306.578125 " fill-opacity="1" fill-rule="nonzero"/><path fill="#ffffff" d="M 230 315.789062 L 230.675781 360.925781 L 340.171875 360.925781 L 339.496094 314.910156 L 230 315.789062 " fill-opacity="1" fill-rule="nonzero"/><path fill="#ffffff" d="M 338.492188 203.871094 L 326.5 166.410156 C 325.796875 165.242188 324.523438 164.539062 323.160156 164.574219 C 320.0625 164.59375 317.175781 166.117188 315.40625 168.65625 C 312.972656 172.992188 312.066406 178.019531 312.84375 182.929688 C 313.832031 189.230469 316.464844 205.1875 317.6875 212.566406 C 318.070312 214.882812 318.316406 216.351562 318.320312 216.410156 L 318.855469 219.636719 L 315.828125 220.871094 C 313.539062 221.941406 311.386719 223.300781 309.4375 224.910156 L 309.429688 224.910156 C 306.722656 227.066406 304.4375 229.710938 302.695312 232.703125 C 301 235.679688 299.375 238.824219 297.867188 242.039062 L 290.449219 238.5625 C 291.605469 236.089844 292.832031 233.664062 294.101562 231.316406 L 234.980469 256.035156 C 235.367188 263.742188 238.488281 271.054688 243.78125 276.667969 L 243.792969 276.667969 C 244.011719 276.902344 244.234375 277.136719 244.464844 277.367188 L 325.972656 277.292969 C 326.25 276.863281 326.539062 276.4375 326.8125 276.011719 C 329.203125 272.308594 331.246094 268.976562 331.273438 268.9375 L 331.347656 268.820312 C 332.054688 267.753906 332.578125 266.570312 332.898438 265.332031 L 344.429688 222.410156 L 341 211.703125 L 338.492188 203.871094 " fill-opacity="1" fill-rule="nonzero"/><g clip-path="url(#9051115d27)"><path fill="#ffffff" d="M 354.101562 187.882812 L 300.808594 60.429688 L 250.828125 81.324219 C 247.660156 82.640625 244.019531 81.132812 242.703125 77.960938 C 242.273438 76.925781 242.132812 75.792969 242.292969 74.683594 C 242.894531 70.53125 243.953125 60.238281 240.769531 54.226562 C 235.097656 43.648438 221.925781 39.671875 211.347656 45.34375 C 200.769531 51.015625 196.792969 64.1875 202.464844 74.765625 C 205.175781 79.820312 209.773438 83.601562 215.257812 85.277344 C 217.554688 85.957031 219.164062 88.019531 219.269531 90.410156 C 219.398438 92.816406 218 95.042969 215.78125 95.980469 L 161.75 118.277344 C 162.515625 119.152344 163.140625 120.136719 163.617188 121.199219 C 166 126.519531 169.300781 133.894531 172.683594 141.460938 C 174.550781 145.449219 176.394531 149.511719 178.015625 153.398438 C 178.015625 153.40625 178.019531 153.40625 178.019531 153.410156 C 179.785156 157.351562 181.4375 161.054688 182.859375 164.222656 C 190.433594 149.539062 208.480469 143.78125 223.160156 151.355469 C 235.824219 157.890625 242.121094 172.453125 238.210938 186.15625 C 238.210938 186.175781 238.203125 186.195312 238.195312 186.214844 C 238.175781 186.34375 238.140625 186.480469 238.105469 186.613281 C 237.371094 189.558594 236.195312 192.378906 234.617188 194.980469 C 234.34375 195.4375 234.050781 195.886719 233.75 196.332031 C 231.042969 200.300781 227.414062 203.554688 223.171875 205.8125 C 217.316406 208.914062 209.523438 209.28125 202.800781 208.761719 L 221.023438 249.484375 C 221.472656 250.476562 221.789062 251.519531 221.976562 252.59375 L 226.652344 250.632812 L 234.785156 247.238281 L 305.207031 217.792969 C 305.214844 217.789062 305.21875 217.789062 305.222656 217.785156 C 306.660156 216.6875 308.167969 215.6875 309.742188 214.785156 C 308.601562 207.875 305.78125 190.792969 304.742188 184.199219 C 303.691406 177.371094 304.980469 170.386719 308.40625 164.386719 L 308.480469 164.269531 C 311.808594 159.238281 317.488281 156.257812 323.519531 156.386719 C 327.90625 156.488281 331.890625 158.976562 333.910156 162.867188 L 334.070312 163.183594 L 346.082031 200.703125 L 349.421875 199.304688 C 353.867188 197.445312 355.960938 192.335938 354.101562 187.890625 C 354.101562 187.886719 354.101562 187.882812 354.101562 187.882812 " fill-opacity="1" fill-rule="nonzero"/></g><path fill="#ffffff" d="M 147.582031 65.785156 L 146.980469 18.996094 L 37.484375 18.996094 L 38.089844 66.664062 L 147.582031 65.785156 " fill-opacity="1" fill-rule="nonzero"/><path fill="#ffffff" d="M 48.539062 75.007812 C 47.980469 74.980469 47.425781 75.148438 46.960938 75.46875 L 47.246094 96.078125 L 47.261719 96.898438 C 47.730469 97.25 48.316406 97.421875 48.898438 97.375 L 137.46875 96.664062 L 137.550781 96.800781 L 137.660156 96.800781 C 138.222656 96.816406 138.777344 96.65625 139.238281 96.332031 L 138.9375 74.777344 C 138.464844 74.429688 137.882812 74.261719 137.296875 74.300781 L 48.539062 75.007812 " fill-opacity="1" fill-rule="nonzero"/><path fill="#ffffff" d="M 193.324219 207.640625 C 192.429688 205.644531 192.648438 203.328125 193.910156 201.535156 C 193.933594 201.492188 193.960938 201.453125 193.992188 201.414062 C 195.320312 199.617188 197.515625 198.667969 199.738281 198.933594 C 203.902344 199.433594 214.242188 200.238281 220.171875 196.90625 C 225.015625 194.160156 228.617188 189.652344 230.222656 184.324219 C 232.53125 174.402344 227.628906 164.210938 218.4375 159.824219 C 207.617188 154.640625 194.644531 159.210938 189.457031 170.03125 C 188.992188 171.007812 188.597656 172.015625 188.28125 173.046875 C 187.351562 176.0625 184.152344 177.75 181.136719 176.824219 C 179.519531 176.324219 178.203125 175.132812 177.550781 173.566406 C 175.855469 169.5 173.261719 163.28125 170.398438 156.421875 C 170.386719 156.398438 170.371094 156.375 170.367188 156.347656 C 165.445312 145.34375 159.746094 132.597656 156.136719 124.546875 C 155.746094 123.675781 155.027344 122.996094 154.136719 122.660156 C 153.726562 122.5 153.289062 122.417969 152.851562 122.421875 C 152.347656 122.421875 151.851562 122.527344 151.390625 122.734375 L 150.625 123.078125 L 142.632812 126.65625 L 81.292969 154.105469 C 77.902344 159.363281 73.28125 163.71875 67.828125 166.789062 C 68.976562 173.695312 71.796875 190.785156 72.828125 197.378906 C 73.890625 204.203125 72.601562 211.1875 69.167969 217.183594 L 69.097656 217.300781 C 65.898438 222.140625 60.519531 225.097656 54.714844 225.203125 C 54.496094 225.203125 54.277344 225.199219 54.058594 225.1875 C 49.671875 225.089844 45.683594 222.605469 43.660156 218.707031 L 43.5 218.386719 L 30.234375 176.953125 L 26.621094 178.574219 C 22.21875 180.546875 20.246094 185.710938 22.214844 190.117188 L 79.585938 318.300781 L 125.914062 297.570312 C 120.25 293.21875 114.066406 287.195312 111.753906 280.398438 C 106.480469 264.738281 114.898438 247.765625 130.5625 242.488281 C 146.226562 237.214844 163.195312 245.636719 168.472656 261.296875 C 170.316406 266.769531 170.535156 272.65625 169.109375 278.246094 C 180.800781 273.007812 199.789062 264.511719 211.011719 259.484375 C 213.542969 258.34375 214.675781 255.371094 213.546875 252.832031 L 193.324219 207.640625 " fill-opacity="1" fill-rule="nonzero"/><path fill="#ffffff" d="M 37.761719 173.585938 L 51.074219 215.171875 C 51.777344 216.339844 53.054688 217.039062 54.421875 217 C 57.515625 216.988281 60.414062 215.460938 62.171875 212.917969 C 64.609375 208.582031 65.511719 203.554688 64.730469 198.648438 C 63.4375 190.367188 59.296875 165.417969 59.25 165.164062 L 59.066406 164.050781 L 58.71875 161.941406 L 61.742188 160.695312 C 61.8125 160.667969 70.191406 157.097656 74.878906 148.867188 C 75.097656 148.484375 75.316406 148.09375 75.539062 147.699219 L 86.578125 142.753906 L 141.386719 118.234375 C 139.949219 113.25 137.34375 108.679688 133.785156 104.90625 L 133.777344 104.90625 L 50.765625 105.558594 C 48.375 109.257812 46.328125 112.597656 46.300781 112.640625 L 46.230469 112.757812 C 45.523438 113.824219 44.996094 115.003906 44.671875 116.246094 L 33.144531 159.160156 L 35.25 165.726562 L 37.761719 173.585938 " fill-opacity="1" fill-rule="nonzero"/></svg>