<svg xmlns="http://www.w3.org/2000/svg" xmlns:xlink="http://www.w3.org/1999/xlink" width="500" zoomAndPan="magnify" viewBox="0 0 375 374.999991" height="500" preserveAspectRatio="xMidYMid meet" version="1.0"><defs><clipPath id="953407f07f"><path d="M 56.429688 344 L 318.871094 344 L 318.871094 359.554688 L 56.429688 359.554688 Z M 56.429688 344 " clip-rule="nonzero"/></clipPath><clipPath id="4b82adc8fa"><path d="M 56.429688 355.25 L 318.871094 355.25 L 318.871094 359.554688 L 56.429688 359.554688 Z M 56.429688 355.25 " clip-rule="nonzero"/></clipPath><clipPath id="94ff8dc36d"><path d="M 127 15.304688 L 243 15.304688 L 243 115 L 127 115 Z M 127 15.304688 " clip-rule="nonzero"/></clipPath></defs><g clip-path="url(#953407f07f)"><path fill="#c8d6dc" d="M 56.429688 359.5625 L 318.867188 359.5625 L 318.867188 344.417969 L 56.429688 344.417969 L 56.429688 359.5625 " fill-opacity="1" fill-rule="nonzero"/></g><g clip-path="url(#4b82adc8fa)"><path fill="#92a4ad" d="M 318.867188 359.5625 L 56.429688 359.5625 L 56.429688 355.394531 L 318.867188 355.394531 L 318.867188 359.5625 " fill-opacity="1" fill-rule="nonzero"/></g><path fill="#141a1b" d="M 127.792969 126.652344 C 126.835938 130.296875 126.585938 134.34375 128.894531 137.535156 C 131.03125 140.496094 134.921875 142.152344 138.265625 144.175781 C 141.605469 146.199219 144.773438 149.269531 144.1875 152.703125 C 143.402344 157.335938 136.851562 159.152344 131.75 161.027344 C 126.167969 163.078125 121.015625 166.5 118.691406 171.238281 C 116.367188 175.980469 117.558594 182.117188 122.464844 185.15625 C 128.925781 189.160156 140.175781 187.53125 143.527344 193.664062 C 145.445312 197.175781 143.359375 201.253906 141.101562 204.617188 C 137.683594 209.722656 133.78125 214.652344 131.421875 220.167969 C 129.066406 225.683594 128.410156 232.023438 131.507812 237.269531 C 135.207031 243.53125 143.5 247.007812 151.671875 248.261719 C 159.84375 249.519531 168.246094 248.996094 176.523438 249.570312 C 172.113281 246.773438 166.816406 245.179688 162.035156 242.859375 C 157.253906 240.542969 152.71875 237.125 151.632812 232.570312 C 149.898438 225.296875 157.285156 219.003906 163.695312 213.910156 C 170.105469 208.820312 176.675781 201.453125 173.101562 194.671875 C 171.746094 192.09375 169.117188 190.175781 166.625 188.289062 C 163.464844 185.894531 160.332031 183.339844 158.457031 180.125 C 156.585938 176.90625 156.175781 172.875 158.429688 169.835938 C 161.214844 166.09375 167.136719 164.792969 170.277344 161.257812 C 175.148438 155.773438 171.175781 147.765625 165.507812 142.859375 C 163.011719 140.695312 160.097656 138.636719 159.039062 135.761719 C 156.355469 128.472656 166.710938 122.507812 168.796875 115.082031 C 170.304688 109.710938 166.691406 103.644531 160.675781 101.441406 C 144.835938 95.652344 130.492188 116.382812 127.792969 126.652344 " fill-opacity="1" fill-rule="nonzero"/><g clip-path="url(#94ff8dc36d)"><path fill="#141a1b" d="M 242.707031 80.523438 C 242.707031 116.542969 214.386719 114.609375 182.464844 114.609375 C 150.542969 114.609375 127.105469 116.542969 127.105469 80.523438 C 127.105469 44.5 152.984375 15.300781 184.90625 15.300781 C 216.828125 15.300781 242.707031 44.5 242.707031 80.523438 " fill-opacity="1" fill-rule="nonzero"/></g><path fill="#f3ac71" d="M 203.230469 178.660156 L 174.886719 178.660156 L 174.886719 136.492188 L 203.230469 136.492188 L 203.230469 178.660156 " fill-opacity="1" fill-rule="nonzero"/><path fill="#f3ac71" d="M 203.230469 178.660156 L 174.886719 178.660156 L 174.886719 136.492188 L 203.230469 136.492188 L 203.230469 178.660156 " fill-opacity="1" fill-rule="nonzero"/><path fill="#d6562b" d="M 203.585938 138.53125 C 202.878906 137.90625 202.136719 137.328125 201.367188 136.789062 L 177.058594 136.789062 C 176.183594 137.933594 175.441406 139.304688 174.886719 140.761719 L 174.886719 150.699219 C 176.296875 153.257812 178.855469 155.109375 181.386719 156.566406 C 185.539062 158.957031 190.0625 160.8125 194.792969 161.152344 C 197.765625 161.367188 200.835938 160.929688 203.585938 159.757812 L 203.585938 138.53125 " fill-opacity="1" fill-rule="nonzero"/><path fill="#f3ac71" d="M 227.308594 61.503906 C 227.515625 84.496094 209.019531 103.296875 185.996094 103.503906 C 162.96875 103.710938 144.136719 85.242188 143.925781 62.253906 C 143.722656 39.269531 162.21875 20.464844 185.246094 20.257812 C 208.269531 20.050781 227.101562 38.519531 227.308594 61.503906 " fill-opacity="1" fill-rule="nonzero"/><path fill="#f3ac71" d="M 227.726562 107.5 C 227.929688 130.488281 209.433594 149.289062 186.40625 149.496094 C 163.382812 149.699219 144.550781 131.234375 144.34375 108.246094 C 144.136719 85.261719 162.632812 66.460938 185.65625 66.253906 C 208.683594 66.046875 227.515625 84.511719 227.726562 107.5 " fill-opacity="1" fill-rule="nonzero"/><path fill="#f3ac71" d="M 227.753906 110.960938 L 144.371094 111.710938 L 143.914062 60.828125 L 227.296875 60.082031 L 227.753906 110.960938 " fill-opacity="1" fill-rule="nonzero"/><path fill="#f3ac71" d="M 240.214844 91.980469 C 234.546875 82.160156 226.039062 94.804688 226.039062 94.804688 L 223.460938 117.984375 C 238.132812 114.597656 245.878906 101.800781 240.214844 91.980469 " fill-opacity="1" fill-rule="nonzero"/><path fill="#e37748" d="M 226.847656 100.074219 C 226.847656 100.074219 231.089844 92.1875 235.167969 94.554688 C 239.246094 96.921875 238.46875 109.335938 226.066406 111.976562 L 226.847656 100.074219 " fill-opacity="1" fill-rule="nonzero"/><path fill="#f3ac71" d="M 132.53125 91.9375 C 138.019531 82.011719 146.753906 94.507812 146.753906 94.507812 L 149.75 117.636719 C 135.015625 114.511719 127.042969 101.855469 132.53125 91.9375 " fill-opacity="1" fill-rule="nonzero"/><path fill="#e37748" d="M 146.039062 99.785156 C 146.039062 99.785156 141.660156 91.976562 137.625 94.421875 C 133.589844 96.859375 134.589844 109.257812 147.035156 111.675781 L 146.039062 99.785156 " fill-opacity="1" fill-rule="nonzero"/><path fill="#100f0d" d="M 199.890625 97.21875 C 199.917969 100.617188 201.578125 103.363281 203.59375 103.34375 C 205.609375 103.324219 207.214844 100.554688 207.1875 97.152344 C 207.15625 93.75 205.5 91.007812 203.480469 91.027344 C 201.464844 91.042969 199.859375 93.816406 199.890625 97.21875 " fill-opacity="1" fill-rule="nonzero"/><path fill="#100f0d" d="M 205.382812 93.210938 C 205.773438 93.535156 206.269531 93.527344 206.714844 93.316406 C 207.175781 93.121094 207.53125 92.644531 207.785156 92.140625 C 208.03125 91.617188 208.160156 91.042969 208.191406 90.46875 C 208.210938 89.894531 208.171875 89.335938 207.996094 88.785156 C 207.527344 89.777344 207.28125 90.679688 206.914062 91.40625 C 206.570312 92.144531 206.183594 92.71875 205.382812 93.210938 " fill-opacity="1" fill-rule="nonzero"/><path fill="#100f0d" d="M 168.941406 97.457031 C 168.972656 100.847656 167.359375 103.605469 165.347656 103.621094 C 163.332031 103.640625 161.671875 100.910156 161.640625 97.523438 C 161.609375 94.136719 163.21875 91.378906 165.238281 91.359375 C 167.253906 91.339844 168.910156 94.070312 168.941406 97.457031 " fill-opacity="1" fill-rule="nonzero"/><path fill="#100f0d" d="M 163.375 93.566406 C 162.992188 93.898438 162.496094 93.898438 162.046875 93.695312 C 161.582031 93.511719 161.214844 93.042969 160.953125 92.546875 C 160.699219 92.03125 160.558594 91.460938 160.519531 90.890625 C 160.484375 90.320312 160.519531 89.757812 160.679688 89.210938 C 161.171875 90.191406 161.429688 91.082031 161.8125 91.796875 C 162.171875 92.523438 162.5625 93.089844 163.375 93.566406 " fill-opacity="1" fill-rule="nonzero"/><path fill="#d6562b" d="M 187.089844 101.972656 C 187.058594 103.804688 186.855469 105.597656 186.605469 107.375 C 186.351562 109.152344 186.03125 110.917969 185.667969 112.667969 L 185.390625 113.980469 L 185.101562 115.28125 L 185.027344 115.605469 L 184.976562 115.894531 C 184.949219 116.085938 184.898438 116.277344 184.902344 116.472656 C 184.898438 116.664062 184.863281 116.859375 184.886719 117.054688 L 184.898438 117.347656 L 184.910156 117.492188 L 184.933594 117.640625 C 185.148438 119.210938 186.046875 120.757812 187.273438 122.101562 C 186.847656 121.929688 186.445312 121.6875 186.066406 121.414062 C 185.871094 121.285156 185.699219 121.125 185.515625 120.976562 C 185.347656 120.8125 185.167969 120.65625 185.011719 120.476562 C 184.363281 119.777344 183.839844 118.917969 183.554688 117.949219 C 183.410156 117.464844 183.324219 116.960938 183.3125 116.449219 C 183.289062 116.191406 183.316406 115.941406 183.335938 115.683594 L 183.375 115.308594 L 183.421875 114.96875 C 183.488281 114.519531 183.574219 114.078125 183.648438 113.632812 L 183.90625 112.304688 C 184.273438 110.542969 184.714844 108.800781 185.226562 107.074219 C 185.75 105.351562 186.328125 103.640625 187.089844 101.972656 " fill-opacity="1" fill-rule="nonzero"/><path fill="#d6562b" d="M 204.542969 145.742188 C 202.355469 147.105469 199.953125 148.125 197.464844 148.871094 C 194.976562 149.617188 192.390625 150.0625 189.792969 150.226562 C 187.191406 150.386719 184.574219 150.257812 182.011719 149.832031 C 179.453125 149.398438 176.941406 148.679688 174.597656 147.601562 C 177.136719 148.054688 179.644531 148.421875 182.160156 148.601562 C 184.675781 148.792969 187.191406 148.8125 189.691406 148.65625 C 192.199219 148.5 194.691406 148.175781 197.164062 147.679688 C 199.640625 147.183594 202.082031 146.507812 204.542969 145.742188 " fill-opacity="1" fill-rule="nonzero"/><path fill="#141a1b" d="M 234.894531 75.546875 C 220.320312 75 205.90625 70.722656 193.398438 63.234375 C 186.078125 58.855469 179.003906 52.777344 177.019531 44.488281 C 168.972656 60.679688 153.335938 72.902344 135.671875 76.824219 C 133.0625 61.945312 138.828125 45.667969 149.207031 34.675781 C 154.058594 29.53125 159.878906 25.230469 166.429688 22.558594 C 182.277344 16.097656 201.414062 20.136719 214.5625 31.082031 C 227.710938 42.027344 234.03125 58.480469 234.894531 75.546875 " fill-opacity="1" fill-rule="nonzero"/><path fill="#141a1b" d="M 156.765625 80.496094 C 157.910156 77.609375 161.070312 75.59375 164.371094 75.503906 C 166.011719 75.511719 167.644531 75.855469 169.035156 76.609375 C 169.753906 76.933594 170.359375 77.453125 170.980469 77.886719 C 171.546875 78.421875 172.085938 78.972656 172.546875 79.582031 C 171.769531 79.417969 171.085938 79.160156 170.402344 78.941406 C 169.691406 78.785156 169.035156 78.535156 168.359375 78.402344 C 167.023438 78.085938 165.722656 77.9375 164.441406 77.957031 C 163.15625 77.953125 161.898438 78.246094 160.625 78.65625 C 159.347656 79.097656 158.09375 79.714844 156.765625 80.496094 " fill-opacity="1" fill-rule="nonzero"/><path fill="#141a1b" d="M 197.359375 78.148438 C 198.511719 75.261719 201.664062 73.246094 204.96875 73.15625 C 206.609375 73.167969 208.238281 73.507812 209.628906 74.261719 C 210.347656 74.585938 210.953125 75.105469 211.582031 75.542969 C 212.144531 76.078125 212.679688 76.625 213.144531 77.234375 C 212.367188 77.070312 211.683594 76.816406 210.996094 76.597656 C 210.285156 76.4375 209.628906 76.1875 208.957031 76.054688 C 207.621094 75.738281 206.320312 75.589844 205.039062 75.609375 C 203.753906 75.609375 202.496094 75.898438 201.21875 76.3125 C 199.941406 76.75 198.6875 77.367188 197.359375 78.148438 " fill-opacity="1" fill-rule="nonzero"/><path fill="#ffffff" d="M 170.992188 124.273438 L 201.496094 124.140625 C 201.496094 124.140625 202.582031 139.859375 186.808594 139.960938 C 171.039062 140.0625 170.992188 124.273438 170.992188 124.273438 " fill-opacity="1" fill-rule="nonzero"/><path fill="#1c2034" d="M 73.25 292.53125 C 70.148438 299.574219 74.714844 308.394531 83.457031 312.234375 C 92.195312 316.074219 101.800781 313.476562 104.902344 306.433594 C 108.007812 299.390625 103.441406 290.570312 94.699219 286.730469 C 85.957031 282.894531 76.355469 285.488281 73.25 292.53125 " fill-opacity="1" fill-rule="nonzero"/><path fill="#1c2034" d="M 119.480469 187.484375 C 116.378906 194.527344 120.945312 203.351562 129.6875 207.191406 C 138.425781 211.03125 148.027344 208.433594 151.136719 201.390625 C 154.238281 194.351562 149.667969 185.527344 140.925781 181.691406 C 132.1875 177.847656 122.585938 180.445312 119.480469 187.484375 " fill-opacity="1" fill-rule="nonzero"/><path fill="#1c2034" d="M 119.484375 187.484375 L 151.136719 201.390625 L 104.554688 307.070312 L 72.898438 293.167969 L 119.484375 187.484375 " fill-opacity="1" fill-rule="nonzero"/><path fill="#1c2034" d="M 173.378906 324.179688 L 90.792969 313.09375 L 95.460938 280.902344 C 95.460938 280.902344 162.898438 292.066406 177.445312 288.332031 L 173.378906 324.179688 " fill-opacity="1" fill-rule="nonzero"/><path fill="#1c2034" d="M 302.050781 292.53125 C 305.152344 299.574219 300.582031 308.394531 291.84375 312.234375 C 283.101562 316.074219 273.5 313.476562 270.398438 306.433594 C 267.292969 299.390625 271.863281 290.570312 280.601562 286.730469 C 289.34375 282.894531 298.945312 285.488281 302.050781 292.53125 " fill-opacity="1" fill-rule="nonzero"/><path fill="#1c2034" d="M 255.820312 187.484375 C 258.921875 194.527344 254.355469 203.351562 245.613281 207.191406 C 236.875 211.03125 227.269531 208.433594 224.167969 201.390625 C 221.0625 194.351562 225.632812 185.527344 234.371094 181.691406 C 243.113281 177.847656 252.714844 180.445312 255.820312 187.484375 " fill-opacity="1" fill-rule="nonzero"/><path fill="#1c2034" d="M 255.820312 187.484375 L 224.164062 201.390625 L 270.75 307.070312 L 302.402344 293.167969 L 255.820312 187.484375 " fill-opacity="1" fill-rule="nonzero"/><path fill="#1c2034" d="M 201.921875 324.179688 L 284.503906 313.09375 L 279.835938 280.902344 C 279.835938 280.902344 212.402344 292.066406 197.855469 288.332031 L 201.921875 324.179688 " fill-opacity="1" fill-rule="nonzero"/><path fill="#232847" d="M 240.160156 267.625 C 242.097656 264.238281 245.761719 262.105469 247.632812 258.523438 C 254.058594 246.210938 248.464844 232.511719 240.769531 222.195312 L 248.089844 179.628906 L 218.546875 168.882812 L 203.269531 182.703125 L 183.230469 182.382812 L 164.136719 168.40625 L 156.523438 169.457031 L 156.3125 168.882812 L 126.769531 179.628906 L 134.085938 222.195312 C 126.390625 232.511719 120.800781 246.210938 127.230469 258.523438 C 129.097656 262.105469 132.761719 264.238281 134.699219 267.628906 C 140.71875 278.15625 138.789062 292.054688 136.136719 303.289062 C 135.277344 306.925781 135.066406 307.457031 138.289062 309.726562 C 141.0625 311.679688 144.136719 313.195312 147.296875 314.394531 C 153.558594 316.773438 160.238281 317.902344 166.867188 318.65625 C 191.292969 321.433594 216.902344 319.671875 238.917969 308.757812 C 236.6875 304.5625 237.347656 300.316406 236.789062 295.777344 C 236.269531 291.558594 236.167969 287.308594 236.546875 283.074219 C 236.988281 278.246094 237.703125 271.914062 240.160156 267.625 " fill-opacity="1" fill-rule="nonzero"/><path fill="#f3ac71" d="M 174.425781 164.933594 L 154.921875 171.824219 C 154.921875 171.824219 161.59375 199.074219 189.035156 199.074219 C 216.476562 199.074219 226.863281 174.125 226.863281 174.125 L 203.054688 164.296875 L 174.425781 164.933594 " fill-opacity="1" fill-rule="nonzero"/><path fill="#c8c8cd" d="M 151.660156 176.222656 L 158.8125 300.207031 L 216.011719 300.207031 L 222.765625 178.90625 L 198.015625 201.066406 L 179.644531 199.074219 L 151.660156 176.222656 " fill-opacity="1" fill-rule="nonzero"/><path fill="#ffffff" d="M 215.097656 164.972656 L 187.429688 199.074219 L 199.457031 224.121094 L 232.058594 172.308594 L 215.097656 164.972656 " fill-opacity="1" fill-rule="nonzero"/><path fill="#ffffff" d="M 161.414062 164.972656 L 190.40625 199 L 177.050781 224.121094 L 144.453125 172.308594 L 161.414062 164.972656 " fill-opacity="1" fill-rule="nonzero"/><path fill="#3a4752" d="M 267.65625 337.757812 L 109.59375 337.757812 L 92.246094 247.210938 C 90.550781 238.367188 97.339844 230.171875 106.355469 230.171875 L 273.5625 230.171875 C 282.746094 230.171875 289.570312 238.65625 287.589844 247.609375 L 267.65625 337.757812 " fill-opacity="1" fill-rule="nonzero"/><path fill="#343c3f" d="M 268.027344 349.230469 L 108.734375 349.230469 C 107.496094 349.230469 106.484375 348.21875 106.484375 346.980469 L 106.484375 340.003906 C 106.484375 338.769531 107.496094 337.757812 108.734375 337.757812 L 268.027344 337.757812 C 269.261719 337.757812 270.277344 338.769531 270.277344 340.003906 L 270.277344 346.980469 C 270.277344 348.21875 269.261719 349.230469 268.027344 349.230469 " fill-opacity="1" fill-rule="nonzero"/><path fill="#737f87" d="M 191.628906 309.09375 C 182.039062 309.09375 174.265625 301.335938 174.265625 291.765625 C 174.265625 282.191406 182.039062 274.433594 191.628906 274.433594 C 201.214844 274.433594 208.988281 282.191406 208.988281 291.765625 C 208.988281 301.335938 201.214844 309.09375 191.628906 309.09375 " fill-opacity="1" fill-rule="nonzero"/><path fill="#1b1918" d="M 159.089844 135.488281 C 156.089844 135.273438 153.277344 134.523438 150.675781 133.238281 C 145.003906 130.441406 141.441406 125.589844 139.449219 122.015625 C 137.304688 118.15625 136.492188 114.984375 136.457031 114.851562 C 136.339844 114.382812 136.625 113.90625 137.09375 113.789062 C 137.5625 113.667969 138.042969 113.953125 138.160156 114.425781 C 138.199219 114.578125 141.386719 126.710938 151.464844 131.671875 C 157.902344 134.84375 165.785156 134.46875 174.886719 130.554688 C 175.332031 130.363281 175.851562 130.570312 176.039062 131.011719 C 176.234375 131.457031 176.027344 131.972656 175.582031 132.164062 C 169.589844 134.738281 164.074219 135.851562 159.089844 135.488281 " fill-opacity="1" fill-rule="nonzero"/><path fill="#1b1918" d="M 179.203125 133.261719 C 178.992188 136.15625 176.472656 138.335938 173.574219 138.125 C 170.675781 137.914062 168.5 135.398438 168.710938 132.507812 C 168.917969 129.617188 171.4375 127.4375 174.332031 127.648438 C 177.230469 127.859375 179.410156 130.375 179.203125 133.261719 " fill-opacity="1" fill-rule="nonzero"/><path fill="#939897" d="M 129.382812 97.527344 C 128.085938 78.722656 131.589844 72.316406 131.589844 72.316406 L 127.308594 68.59375 C 118.253906 70.9375 124.796875 108.121094 124.796875 108.121094 C 124.203125 112.988281 129.882812 111.210938 129.882812 111.210938 L 129.382812 97.527344 " fill-opacity="1" fill-rule="nonzero"/><path fill="#1b1918" d="M 135.460938 86.371094 C 135.460938 86.371094 134.835938 83.808594 133.402344 86.222656 C 131.96875 88.632812 129.222656 93.019531 129.222656 93.019531 L 129.882812 111.210938 C 129.882812 111.210938 135.371094 121.128906 136.929688 117.019531 C 138.488281 112.910156 135.460938 86.371094 135.460938 86.371094 " fill-opacity="1" fill-rule="nonzero"/><path fill="#939494" d="M 137.570312 86.21875 C 137.570312 86.21875 136.308594 84.210938 134.976562 86.03125 C 133.644531 87.855469 134.664062 114.34375 136.414062 117.519531 C 136.414062 117.519531 139.105469 119.332031 139.367188 115.695312 C 139.628906 112.066406 140.222656 103.84375 140.222656 103.84375 L 137.570312 86.21875 " fill-opacity="1" fill-rule="nonzero"/><path fill="#1b1918" d="M 141.570312 85.539062 C 140.730469 85.316406 138.503906 84.875 137.570312 86.21875 C 137.457031 86.382812 137.394531 86.570312 137.375 86.761719 C 137.164062 89.15625 135.660156 107.871094 139.121094 117.417969 C 139.121094 117.417969 142.496094 118.859375 144.339844 116.59375 C 145.492188 115.183594 145.667969 111.734375 145.574219 108.578125 C 145.480469 105.347656 145.53125 102.113281 145.683594 98.886719 C 145.910156 93.863281 145.628906 86.617188 142.191406 85.699219 C 141.988281 85.644531 141.777344 85.59375 141.570312 85.539062 " fill-opacity="1" fill-rule="nonzero"/><path fill="#939897" d="M 241.519531 102.671875 C 245.511719 84.25 242.96875 77.40625 242.96875 77.40625 L 247.742188 74.339844 C 256.367188 77.957031 244.53125 113.8125 244.53125 113.8125 C 244.417969 118.714844 239.054688 116.140625 239.054688 116.140625 L 241.519531 102.671875 " fill-opacity="1" fill-rule="nonzero"/><path fill="#1b1918" d="M 237.113281 90.757812 C 237.113281 90.757812 238.101562 88.316406 239.171875 90.910156 C 240.246094 93.5 242.332031 98.234375 242.332031 98.234375 L 239.054688 116.140625 C 239.054688 116.140625 232.195312 125.167969 231.242188 120.878906 C 230.296875 116.589844 237.113281 90.757812 237.113281 90.757812 " fill-opacity="1" fill-rule="nonzero"/><path fill="#939494" d="M 235.050781 90.308594 C 235.050781 90.308594 236.585938 88.496094 237.644531 90.492188 C 238.699219 92.492188 233.875 118.554688 231.683594 121.449219 C 231.683594 121.449219 228.761719 122.855469 229.023438 119.222656 C 229.285156 115.589844 229.882812 107.367188 229.882812 107.367188 L 235.050781 90.308594 " fill-opacity="1" fill-rule="nonzero"/><path fill="#1b1918" d="M 231.1875 89.0625 C 232.050781 88.957031 234.316406 88.839844 235.050781 90.308594 C 235.136719 90.480469 235.171875 90.675781 235.160156 90.875 C 235.027344 93.269531 233.820312 112.007812 229.019531 120.957031 C 229.019531 120.957031 225.472656 121.902344 223.972656 119.394531 C 223.035156 117.832031 223.363281 114.394531 223.90625 111.285156 C 224.464844 108.101562 224.878906 104.894531 225.199219 101.675781 C 225.695312 96.675781 227.015625 89.542969 230.546875 89.128906 C 230.761719 89.101562 230.976562 89.085938 231.1875 89.0625 " fill-opacity="1" fill-rule="nonzero"/><path fill="#939897" d="M 130.210938 75.71875 L 125.3125 73.789062 L 134.496094 50.550781 C 137.347656 43.328125 142.019531 36.90625 148.003906 31.980469 C 154.011719 27.03125 161.21875 23.691406 168.851562 22.316406 C 178.355469 20.609375 188.617188 20.746094 198.539062 22.722656 C 216.351562 26.273438 231.476562 38.34375 239 55.007812 L 250.300781 80.046875 L 245.5 82.207031 L 234.195312 57.167969 C 227.375 42.046875 213.65625 31.097656 197.507812 27.882812 C 188.363281 26.0625 178.515625 25.921875 169.785156 27.492188 C 156.164062 29.945312 144.515625 39.519531 139.394531 52.480469 L 130.210938 75.71875 " fill-opacity="1" fill-rule="nonzero"/><path fill="#1b1918" d="M 135.882812 57.675781 C 135.367188 57.640625 134.839844 57.523438 134.332031 57.320312 C 131.621094 56.253906 130.296875 53.203125 131.363281 50.5 C 134.378906 42.867188 139.320312 36.078125 145.644531 30.863281 C 152 25.632812 159.628906 22.097656 167.703125 20.644531 C 177.527344 18.875 188.132812 19.019531 198.371094 21.058594 C 217.019531 24.773438 232.847656 37.40625 240.71875 54.84375 C 241.914062 57.488281 240.730469 60.605469 238.082031 61.796875 C 235.425781 62.988281 232.308594 61.8125 231.113281 59.164062 C 224.636719 44.8125 211.625 34.429688 196.3125 31.375 C 187.480469 29.613281 177.984375 29.480469 169.570312 30.996094 C 156.835938 33.285156 145.953125 42.238281 141.160156 54.359375 C 140.296875 56.550781 138.121094 57.835938 135.882812 57.675781 " fill-opacity="1" fill-rule="nonzero"/></svg>