<svg xmlns="http://www.w3.org/2000/svg" xmlns:xlink="http://www.w3.org/1999/xlink" width="500" zoomAndPan="magnify" viewBox="0 0 375 374.999991" height="500" preserveAspectRatio="xMidYMid meet" version="1.0"><path fill="#ffffff" d="M 238.503906 82.320312 C 245.234375 110.171875 227.890625 138.113281 199.757812 144.746094 C 186.261719 147.945312 172.019531 145.691406 160.179688 138.488281 C 148.34375 131.285156 139.890625 119.730469 136.648438 106.355469 C 133.425781 92.996094 135.703125 78.898438 142.964844 67.199219 C 150.230469 55.488281 161.902344 47.117188 175.40625 43.933594 C 203.515625 37.308594 231.769531 54.484375 238.503906 82.320312 Z M 238.503906 82.320312 " fill-opacity="1" fill-rule="evenodd"/><path fill="#ffffff" d="M 187.59375 196.824219 L 250.304688 218.636719 L 250.304688 249.394531 L 276.257812 239.359375 C 281.394531 237.390625 285.640625 245.335938 279.480469 247.710938 L 246.917969 260.285156 C 236.492188 266.445312 233.734375 278.386719 236.996094 287.703125 C 237.472656 289.035156 238.089844 290.347656 238.78125 291.578125 C 228.03125 312.097656 210.097656 327.347656 187.589844 339.632812 C 165.058594 327.34375 147.125 312.097656 136.375 291.578125 C 137.078125 290.347656 137.691406 289.035156 138.160156 287.703125 C 141.421875 278.425781 138.691406 266.507812 128.335938 260.347656 L 95.648438 247.710938 C 91.5 246.109375 93.652344 237.367188 98.851562 239.359375 L 124.84375 249.394531 L 124.84375 218.636719 Z M 142.535156 158.714844 C 129.484375 158.714844 119.390625 161.132812 111.179688 167.128906 C 102.996094 173.105469 97.007812 182.210938 90.910156 194.789062 L 63.71875 250.847656 C 59.433594 259.714844 57.625 267.882812 59.804688 275.1875 C 61.960938 282.488281 68.113281 287.96875 76.976562 291.417969 L 105.660156 302.558594 C 112.472656 305.207031 119.144531 304.652344 124.335938 301.855469 C 125.238281 301.382812 126.0625 300.8125 126.875 300.21875 C 139.851562 323.199219 160.46875 340.210938 185.480469 353.460938 C 186.792969 354.140625 188.371094 354.140625 189.6875 353.460938 C 214.703125 340.210938 235.324219 323.199219 248.289062 300.21875 C 249.113281 300.8125 249.933594 301.382812 250.832031 301.855469 C 256.027344 304.648438 262.675781 305.207031 269.484375 302.558594 L 298.144531 291.417969 C 307.03125 287.96875 313.210938 282.488281 315.363281 275.1875 C 317.535156 267.882812 315.710938 259.714844 311.425781 250.847656 L 284.257812 194.789062 C 278.164062 182.214844 272.171875 173.105469 263.984375 167.128906 C 255.78125 161.136719 245.683594 158.714844 232.628906 158.714844 Z M 142.535156 158.714844 " fill-opacity="1" fill-rule="nonzero"/><path fill="#ffffff" d="M 176.910156 294.101562 C 178.589844 295.761719 181.292969 295.761719 182.957031 294.101562 L 191.046875 286.09375 L 221.601562 255.132812 C 223.261719 253.46875 223.261719 250.808594 221.578125 249.140625 L 215.199219 242.820312 C 213.511719 241.164062 210.335938 241.671875 208.652344 243.3125 L 179.992188 272 L 166.121094 258.105469 C 164.457031 256.445312 161.769531 256.445312 160.109375 258.128906 L 153.585938 264.714844 C 151.941406 266.394531 151.941406 269.105469 153.585938 270.765625 L 176.910156 294.101562 " fill-opacity="1" fill-rule="evenodd"/></svg>