<svg xmlns="http://www.w3.org/2000/svg" xmlns:xlink="http://www.w3.org/1999/xlink" width="500" zoomAndPan="magnify" viewBox="0 0 375 374.999991" height="500" preserveAspectRatio="xMidYMid meet" version="1.0"><defs><clipPath id="dcd129408e"><path d="M 43.871094 15.230469 L 242 15.230469 L 242 359.480469 L 43.871094 359.480469 Z M 43.871094 15.230469 " clip-rule="nonzero"/></clipPath><clipPath id="b6bf9d7157"><path d="M 97 15.230469 L 189 15.230469 L 189 57 L 97 57 Z M 97 15.230469 " clip-rule="nonzero"/></clipPath></defs><path fill="#5798dc" d="M 50.398438 310.671875 L 235.382812 310.683594 L 235.382812 41.988281 C 235.382812 29.566406 225.261719 19.492188 212.867188 19.492188 L 72.914062 19.492188 C 60.480469 19.492188 50.398438 29.601562 50.398438 41.988281 Z M 50.398438 310.671875 " fill-opacity="1" fill-rule="evenodd"/><g clip-path="url(#dcd129408e)"><path fill="#4a5254" d="M 209.898438 359.472656 L 75.890625 359.472656 C 58.214844 359.472656 43.875 345.109375 43.875 327.449219 L 43.875 47.214844 C 43.875 29.554688 58.25 15.230469 75.890625 15.230469 L 209.898438 15.230469 C 227.574219 15.230469 241.945312 29.589844 241.945312 47.214844 L 241.945312 327.453125 C 241.945312 345.109375 227.574219 359.472656 209.898438 359.472656 Z M 54.328125 304.488281 L 231.457031 304.496094 L 231.457031 47.214844 C 231.457031 35.320312 221.765625 25.671875 209.898438 25.671875 L 75.890625 25.671875 C 63.984375 25.671875 54.328125 35.355469 54.328125 47.214844 Z M 54.328125 304.488281 " fill-opacity="1" fill-rule="evenodd"/></g><path fill="#ffa725" d="M 153.78125 344.964844 L 132.003906 344.964844 C 114.882812 344.964844 114.921875 319 132.003906 319 L 153.78125 319 C 170.886719 319 170.886719 344.964844 153.78125 344.964844 Z M 153.78125 344.964844 " fill-opacity="1" fill-rule="evenodd"/><g clip-path="url(#b6bf9d7157)"><path fill="#4a5254" d="M 168.699219 56.101562 L 117.085938 56.101562 C 113.273438 56.101562 108.121094 54.289062 105.363281 45.726562 L 97.707031 22.046875 C 96.605469 18.617188 99.199219 15.226562 102.675781 15.226562 L 183.109375 15.226562 C 186.65625 15.226562 189.152344 18.707031 188.082031 22.046875 L 180.421875 45.726562 C 177.664062 54.285156 172.511719 56.101562 168.699219 56.101562 Z M 168.699219 56.101562 " fill-opacity="1" fill-rule="evenodd"/></g><path fill="#4b8bcf" d="M 231.453125 304.496094 L 231.453125 47.214844 C 231.453125 42.453125 229.902344 38.054688 227.277344 34.488281 L 54.359375 304.488281 Z M 231.453125 304.496094 " fill-opacity="1" fill-rule="evenodd"/><path fill="#ffffff" d="M 149.664062 157.015625 C 149.105469 157.015625 148.515625 156.902344 147.953125 156.625 C 112.707031 139.566406 125.25 87.546875 163.34375 87.546875 C 181.539062 87.546875 197.015625 101.132812 199.316406 119.171875 C 199.984375 124.441406 191.96875 125.453125 191.296875 120.179688 C 189.5 106.171875 177.476562 95.585938 163.320312 95.585938 C 133.265625 95.585938 124.3125 136.578125 151.347656 149.285156 C 155.242188 151.113281 153.894531 157.015625 149.664062 157.015625 Z M 149.664062 157.015625 " fill-opacity="1" fill-rule="evenodd"/><path fill="#ffffff" d="M 162.898438 144.464844 C 152.003906 144.464844 142.710938 135.261719 142.710938 123.820312 C 142.710938 112.449219 151.992188 103.175781 163.375 103.175781 C 185.402344 103.175781 188.664062 133.117188 178.847656 131.105469 C 174.472656 130.207031 175.960938 125.726562 175.960938 123.820312 C 175.960938 107.261719 150.78125 107.261719 150.78125 123.820312 C 150.78125 130.683594 156.164062 136.203125 163.007812 136.398438 C 168.238281 136.539062 168.152344 144.46875 162.894531 144.46875 Z M 162.898438 144.464844 " fill-opacity="1" fill-rule="evenodd"/><path fill="#f8b9a0" d="M 251.601562 280.96875 C 230.265625 280.96875 207.332031 268.027344 194.914062 259.761719 C 180.875 250.429688 136.789062 258.96875 150.898438 230.265625 C 160.667969 210.398438 180.210938 209.140625 198.164062 214.972656 L 161.300781 151.132812 C 158.804688 146.792969 158.132812 141.75 159.449219 136.875 C 163.792969 120.722656 185.523438 117.875 193.875 132.335938 L 203.96875 149.789062 C 209.125 138.753906 223.464844 135.582031 232.902344 143.261719 C 238.085938 129.480469 256.40625 126.800781 265.339844 138.332031 C 271.542969 124.632812 291.023438 123.382812 298.730469 136.707031 C 301.859375 142.117188 325.667969 182.175781 325.867188 184.410156 C 331.121094 242.710938 302.625 276.898438 257.769531 280.546875 C 255.695312 280.828125 253.648438 280.96875 251.601562 280.96875 Z M 251.601562 280.96875 " fill-opacity="1" fill-rule="evenodd"/></svg>