<svg xmlns="http://www.w3.org/2000/svg" xmlns:xlink="http://www.w3.org/1999/xlink" width="500" zoomAndPan="magnify" viewBox="0 0 375 374.999991" height="500" preserveAspectRatio="xMidYMid meet" version="1.0"><defs><clipPath id="1c3d3d3e5b"><path d="M 210.292969 192 L 360.585938 192 L 360.585938 342.703125 L 210.292969 342.703125 Z M 210.292969 192 " clip-rule="nonzero"/></clipPath><clipPath id="390ecf20bc"><path d="M 14.085938 32 L 297 32 L 297 338 L 14.085938 338 Z M 14.085938 32 " clip-rule="nonzero"/></clipPath></defs><g clip-path="url(#1c3d3d3e5b)"><path fill="#ffffff" d="M 324.359375 255.257812 L 280.648438 298.96875 C 277.976562 301.640625 274.484375 302.96875 270.988281 302.96875 C 267.496094 302.96875 264 301.640625 261.332031 298.96875 L 239.882812 277.519531 C 234.550781 272.1875 234.550781 263.542969 239.882812 258.203125 C 245.210938 252.871094 253.867188 252.871094 259.199219 258.203125 L 270.988281 270.003906 L 305.039062 235.953125 C 310.371094 230.609375 319.015625 230.609375 324.359375 235.953125 C 329.691406 241.285156 329.691406 249.929688 324.359375 255.257812 Z M 285.539062 192.207031 C 243.984375 192.207031 210.292969 225.898438 210.292969 267.453125 C 210.292969 309.011719 243.984375 342.710938 285.539062 342.710938 C 327.097656 342.710938 360.789062 309.011719 360.789062 267.453125 C 360.789062 225.898438 327.097656 192.207031 285.539062 192.207031 " fill-opacity="1" fill-rule="nonzero"/></g><g clip-path="url(#390ecf20bc)"><path fill="#ffffff" d="M 289.710938 88.34375 C 285.472656 84.660156 279.859375 82.992188 274.304688 83.769531 C 271.25 84.195312 267.550781 84.535156 263.4375 84.535156 C 249.035156 84.535156 229.332031 80.511719 212.277344 62.90625 C 192.113281 42.109375 173.96875 32.40625 155.222656 32.40625 C 136.480469 32.40625 118.332031 42.109375 98.167969 62.90625 C 76.234375 85.558594 49.882812 85.71875 36.144531 83.769531 C 30.585938 82.992188 24.972656 84.660156 20.734375 88.34375 C 16.507812 92.007812 14.085938 97.316406 14.085938 102.917969 L 14.085938 146.074219 C 14.109375 147.4375 14.976562 180.386719 31.792969 220.332031 C 47.335938 257.277344 80.054688 307.355469 147.613281 336.109375 C 150.039062 337.144531 152.621094 337.640625 155.222656 337.640625 C 157.828125 337.640625 160.398438 337.144531 162.832031 336.109375 C 177.664062 329.785156 190.816406 322.457031 202.472656 314.421875 C 199.359375 308.945312 196.757812 303.105469 194.761719 296.996094 C 183.324219 305.179688 170.304688 312.605469 155.503906 318.898438 C 155.324219 318.976562 155.121094 318.976562 154.941406 318.898438 C 105.574219 297.875 70.023438 262.507812 49.308594 213.738281 C 33.6875 177.003906 32.785156 145.972656 32.785156 145.871094 L 32.785156 102.917969 C 32.785156 102.851562 32.785156 102.648438 33.007812 102.445312 C 33.167969 102.320312 33.3125 102.285156 33.414062 102.285156 L 33.539062 102.285156 C 50.796875 104.722656 83.898438 104.519531 111.613281 75.914062 C 127.789062 59.207031 142.058594 51.105469 155.222656 51.105469 C 161.792969 51.105469 168.667969 53.121094 175.894531 57.246094 C 183.140625 61.359375 190.75 67.550781 198.832031 75.914062 C 226.546875 104.519531 259.652344 104.722656 276.90625 102.285156 C 277.007812 102.265625 277.210938 102.242188 277.4375 102.445312 C 277.664062 102.648438 277.664062 102.851562 277.664062 102.917969 L 277.664062 145.667969 C 277.664062 146.03125 277.335938 156.613281 273.921875 172.710938 C 277.742188 172.226562 281.605469 172 285.539062 172 C 288.097656 172 290.648438 172.101562 293.148438 172.304688 C 296.078125 156.839844 296.339844 146.742188 296.359375 145.871094 L 296.359375 102.917969 C 296.359375 97.316406 293.9375 92.007812 289.710938 88.34375 " fill-opacity="1" fill-rule="nonzero"/></g><path fill="#ffffff" d="M 173.820312 184.882812 L 173.820312 217.253906 C 173.820312 227.53125 165.503906 235.851562 155.222656 235.851562 C 144.933594 235.851562 136.625 227.53125 136.625 217.253906 L 136.625 184.882812 C 130.414062 179.605469 126.390625 171.832031 126.390625 163.027344 C 126.390625 147.113281 139.308594 134.207031 155.222656 134.207031 C 171.136719 134.207031 184.054688 147.113281 184.054688 163.027344 C 184.054688 171.832031 180.03125 179.605469 173.820312 184.882812 Z M 182.058594 93.292969 C 166.5625 77.296875 158.132812 75.5625 155.222656 75.5625 C 152.316406 75.5625 143.875 77.296875 128.386719 93.292969 C 104.59375 117.851562 77.734375 125.789062 56.148438 127.410156 L 56.148438 146.480469 C 56.285156 149.390625 57.976562 175.492188 70.800781 205.699219 C 87.808594 245.722656 116.191406 275.59375 155.222656 294.496094 C 168.613281 288.003906 180.210938 280.4375 190.21875 272.257812 C 190.140625 270.667969 190.085938 269.078125 190.085938 267.453125 C 190.085938 227.859375 214.339844 193.808594 248.761719 179.382812 C 253.453125 161.664062 254.21875 148.78125 254.285156 146.378906 L 254.285156 127.410156 C 232.734375 125.789062 205.851562 117.851562 182.058594 93.292969 " fill-opacity="1" fill-rule="nonzero"/></svg>