<svg xmlns="http://www.w3.org/2000/svg" xmlns:xlink="http://www.w3.org/1999/xlink" width="500" zoomAndPan="magnify" viewBox="0 0 375 374.999991" height="500" preserveAspectRatio="xMidYMid meet" version="1.0"><defs><clipPath id="4475242504"><path d="M 45 23 L 330 23 L 330 356.25 L 45 356.25 Z M 45 23 " clip-rule="nonzero"/></clipPath></defs><g clip-path="url(#4475242504)"><path fill="#ffffff" d="M 111.949219 77.316406 C 109.816406 79.300781 106.480469 79.179688 104.496094 77.046875 C 102.511719 74.914062 102.628906 71.578125 104.765625 69.59375 C 113.875 61.097656 124.246094 53.988281 135.539062 48.640625 C 138.175781 47.398438 141.316406 48.523438 142.5625 51.160156 C 143.804688 53.792969 142.675781 56.9375 140.042969 58.179688 C 129.785156 63.035156 120.222656 69.585938 111.949219 77.316406 Z M 298.457031 123.664062 C 281.855469 123.664062 268.25 137.269531 268.25 153.871094 L 268.25 166.003906 C 268.25 167.183594 269.226562 168.160156 270.40625 168.160156 L 326.507812 168.160156 C 327.691406 168.160156 328.667969 167.183594 328.667969 166.003906 L 328.667969 153.871094 C 328.664062 137.269531 315.0625 123.664062 298.457031 123.664062 Z M 287.851562 87.492188 C 278.433594 96.914062 285.136719 113.09375 298.457031 113.09375 C 311.78125 113.09375 318.480469 96.914062 309.0625 87.492188 C 303.207031 81.636719 293.710938 81.636719 287.851562 87.492188 Z M 187.460938 64.332031 C 170.855469 64.332031 157.25 77.933594 157.25 94.539062 L 157.25 106.667969 C 157.25 107.851562 158.226562 108.824219 159.410156 108.824219 L 215.507812 108.824219 C 216.691406 108.824219 217.667969 107.851562 217.667969 106.667969 L 217.667969 94.539062 C 217.667969 77.933594 204.0625 64.332031 187.460938 64.332031 Z M 176.855469 49.367188 C 186.273438 58.785156 202.453125 52.082031 202.453125 38.761719 C 202.453125 25.441406 186.273438 18.738281 176.855469 28.15625 C 171 34.011719 171 43.511719 176.855469 49.367188 Z M 76.460938 113.089844 C 89.785156 113.089844 96.484375 96.910156 87.066406 87.492188 C 77.644531 78.070312 61.464844 84.773438 61.464844 98.09375 C 61.464844 106.378906 68.179688 113.089844 76.460938 113.089844 Z M 48.410156 168.160156 L 104.511719 168.160156 C 105.691406 168.160156 106.667969 167.183594 106.667969 166 L 106.667969 153.871094 C 106.667969 137.269531 93.066406 123.664062 76.460938 123.664062 C 59.855469 123.664062 46.253906 137.269531 46.253906 153.871094 L 46.253906 166.003906 C 46.253906 167.183594 47.230469 168.160156 48.410156 168.160156 Z M 170.976562 256.238281 C 180.078125 265.339844 194.839844 265.339844 203.941406 256.238281 C 213.042969 247.136719 213.042969 232.375 203.941406 223.273438 C 194.839844 214.171875 180.078125 214.171875 170.976562 223.273438 C 161.875 232.375 161.875 247.136719 170.976562 256.238281 Z M 140.15625 291.699219 C 138.003906 286.882812 134.820312 282.726562 130.894531 279.214844 L 85.566406 238.65625 C 81.390625 234.921875 76.609375 233.070312 71 233.070312 L 55.210938 233.070312 C 46.34375 233.070312 41.703125 222.253906 48.089844 215.867188 C 49.984375 213.976562 52.535156 212.90625 55.210938 212.90625 L 87.15625 212.90625 C 87.46875 212.90625 87.722656 212.65625 87.722656 212.339844 L 87.722656 203.824219 C 87.722656 196.828125 96.253906 193.167969 101.289062 198.207031 C 106.179688 203.09375 101.261719 209.5 105.550781 219.117188 C 106.859375 222.050781 108.777344 224.589844 111.164062 226.734375 L 144.363281 256.546875 C 156.007812 267.003906 169.5 272.183594 185.152344 272.183594 L 189.765625 272.183594 C 205.414062 272.183594 218.910156 267.003906 230.550781 256.546875 L 263.75 226.734375 C 268.683594 222.304688 271.289062 216.472656 271.289062 209.84375 L 271.289062 203.824219 C 271.289062 196.828125 279.824219 193.167969 284.859375 198.207031 C 286.351562 199.695312 287.195312 201.710938 287.195312 203.824219 L 287.195312 212.339844 C 287.195312 212.652344 287.449219 212.90625 287.761719 212.90625 L 319.703125 212.90625 C 328.570312 212.90625 333.210938 223.722656 326.824219 230.109375 C 324.933594 232 322.382812 233.070312 319.703125 233.070312 L 303.914062 233.070312 C 298.308594 233.070312 293.527344 234.921875 289.351562 238.65625 L 244.023438 279.214844 C 235.875 286.507812 231.613281 295.980469 231.613281 306.921875 L 231.613281 348.207031 C 231.613281 352.621094 228 356.234375 223.585938 356.234375 L 151.332031 356.234375 C 146.917969 356.234375 143.300781 352.621094 143.300781 348.207031 L 143.300781 306.921875 C 143.304688 301.652344 142.308594 296.515625 140.15625 291.699219 Z M 234.875 58.179688 C 232.242188 56.9375 231.113281 53.792969 232.359375 51.160156 C 233.601562 48.523438 236.746094 47.398438 239.378906 48.640625 C 250.671875 53.988281 261.042969 61.101562 270.15625 69.59375 C 272.289062 71.578125 272.40625 74.914062 270.421875 77.046875 C 268.4375 79.179688 265.101562 79.300781 262.96875 77.316406 C 254.617188 69.53125 245.214844 63.089844 234.875 58.179688 Z M 234.875 58.179688 " fill-opacity="1" fill-rule="evenodd"/></g></svg>